%TF.GenerationSoftware,KiCad,Pcbnew,(6.0.7)*%
%TF.CreationDate,2022-09-05T20:15:19-05:00*%
%TF.ProjectId,SampleTags,53616d70-6c65-4546-9167-732e6b696361,rev?*%
%TF.SameCoordinates,Original*%
%TF.FileFunction,Legend,Bot*%
%TF.FilePolarity,Positive*%
%FSLAX46Y46*%
G04 Gerber Fmt 4.6, Leading zero omitted, Abs format (unit mm)*
G04 Created by KiCad (PCBNEW (6.0.7)) date 2022-09-05 20:15:19*
%MOMM*%
%LPD*%
G01*
G04 APERTURE LIST*
%ADD10C,0.300000*%
%ADD11C,0.150000*%
%ADD12C,0.010000*%
G04 APERTURE END LIST*
D10*
X170409714Y-110014342D02*
X170409714Y-107014342D01*
X169266857Y-107014342D01*
X168981142Y-107157200D01*
X168838285Y-107300057D01*
X168695428Y-107585771D01*
X168695428Y-108014342D01*
X168838285Y-108300057D01*
X168981142Y-108442914D01*
X169266857Y-108585771D01*
X170409714Y-108585771D01*
X165695428Y-109728628D02*
X165838285Y-109871485D01*
X166266857Y-110014342D01*
X166552571Y-110014342D01*
X166981142Y-109871485D01*
X167266857Y-109585771D01*
X167409714Y-109300057D01*
X167552571Y-108728628D01*
X167552571Y-108300057D01*
X167409714Y-107728628D01*
X167266857Y-107442914D01*
X166981142Y-107157200D01*
X166552571Y-107014342D01*
X166266857Y-107014342D01*
X165838285Y-107157200D01*
X165695428Y-107300057D01*
X163409714Y-108442914D02*
X162981142Y-108585771D01*
X162838285Y-108728628D01*
X162695428Y-109014342D01*
X162695428Y-109442914D01*
X162838285Y-109728628D01*
X162981142Y-109871485D01*
X163266857Y-110014342D01*
X164409714Y-110014342D01*
X164409714Y-107014342D01*
X163409714Y-107014342D01*
X163124000Y-107157200D01*
X162981142Y-107300057D01*
X162838285Y-107585771D01*
X162838285Y-107871485D01*
X162981142Y-108157200D01*
X163124000Y-108300057D01*
X163409714Y-108442914D01*
X164409714Y-108442914D01*
X170124000Y-114558628D02*
X170266857Y-114701485D01*
X170695428Y-114844342D01*
X170981142Y-114844342D01*
X171409714Y-114701485D01*
X171695428Y-114415771D01*
X171838285Y-114130057D01*
X171981142Y-113558628D01*
X171981142Y-113130057D01*
X171838285Y-112558628D01*
X171695428Y-112272914D01*
X171409714Y-111987200D01*
X170981142Y-111844342D01*
X170695428Y-111844342D01*
X170266857Y-111987200D01*
X170124000Y-112130057D01*
X168409714Y-114844342D02*
X168695428Y-114701485D01*
X168838285Y-114558628D01*
X168981142Y-114272914D01*
X168981142Y-113415771D01*
X168838285Y-113130057D01*
X168695428Y-112987200D01*
X168409714Y-112844342D01*
X167981142Y-112844342D01*
X167695428Y-112987200D01*
X167552571Y-113130057D01*
X167409714Y-113415771D01*
X167409714Y-114272914D01*
X167552571Y-114558628D01*
X167695428Y-114701485D01*
X167981142Y-114844342D01*
X168409714Y-114844342D01*
X165695428Y-114844342D02*
X165981142Y-114701485D01*
X166124000Y-114415771D01*
X166124000Y-111844342D01*
X164124000Y-114844342D02*
X164409714Y-114701485D01*
X164552571Y-114558628D01*
X164695428Y-114272914D01*
X164695428Y-113415771D01*
X164552571Y-113130057D01*
X164409714Y-112987200D01*
X164124000Y-112844342D01*
X163695428Y-112844342D01*
X163409714Y-112987200D01*
X163266857Y-113130057D01*
X163124000Y-113415771D01*
X163124000Y-114272914D01*
X163266857Y-114558628D01*
X163409714Y-114701485D01*
X163695428Y-114844342D01*
X164124000Y-114844342D01*
X161838285Y-114844342D02*
X161838285Y-112844342D01*
X161838285Y-113415771D02*
X161695428Y-113130057D01*
X161552571Y-112987200D01*
X161266857Y-112844342D01*
X160981142Y-112844342D01*
X173909714Y-119531485D02*
X173481142Y-119674342D01*
X172766857Y-119674342D01*
X172481142Y-119531485D01*
X172338285Y-119388628D01*
X172195428Y-119102914D01*
X172195428Y-118817200D01*
X172338285Y-118531485D01*
X172481142Y-118388628D01*
X172766857Y-118245771D01*
X173338285Y-118102914D01*
X173624000Y-117960057D01*
X173766857Y-117817200D01*
X173909714Y-117531485D01*
X173909714Y-117245771D01*
X173766857Y-116960057D01*
X173624000Y-116817200D01*
X173338285Y-116674342D01*
X172624000Y-116674342D01*
X172195428Y-116817200D01*
X171195428Y-117674342D02*
X170624000Y-119674342D01*
X170052571Y-118245771D01*
X169481142Y-119674342D01*
X168909714Y-117674342D01*
X166481142Y-119674342D02*
X166481142Y-118102914D01*
X166624000Y-117817200D01*
X166909714Y-117674342D01*
X167481142Y-117674342D01*
X167766857Y-117817200D01*
X166481142Y-119531485D02*
X166766857Y-119674342D01*
X167481142Y-119674342D01*
X167766857Y-119531485D01*
X167909714Y-119245771D01*
X167909714Y-118960057D01*
X167766857Y-118674342D01*
X167481142Y-118531485D01*
X166766857Y-118531485D01*
X166481142Y-118388628D01*
X165481142Y-117674342D02*
X164338285Y-117674342D01*
X165052571Y-116674342D02*
X165052571Y-119245771D01*
X164909714Y-119531485D01*
X164624000Y-119674342D01*
X164338285Y-119674342D01*
X162052571Y-119531485D02*
X162338285Y-119674342D01*
X162909714Y-119674342D01*
X163195428Y-119531485D01*
X163338285Y-119388628D01*
X163481142Y-119102914D01*
X163481142Y-118245771D01*
X163338285Y-117960057D01*
X163195428Y-117817200D01*
X162909714Y-117674342D01*
X162338285Y-117674342D01*
X162052571Y-117817200D01*
X160766857Y-119674342D02*
X160766857Y-116674342D01*
X159481142Y-119674342D02*
X159481142Y-118102914D01*
X159624000Y-117817200D01*
X159909714Y-117674342D01*
X160338285Y-117674342D01*
X160624000Y-117817200D01*
X160766857Y-117960057D01*
D11*
%TO.C,REF\u002A\u002A*%
X184171457Y-137933180D02*
X183552409Y-137933180D01*
X183885742Y-138314133D01*
X183742885Y-138314133D01*
X183647647Y-138361752D01*
X183600028Y-138409371D01*
X183552409Y-138504609D01*
X183552409Y-138742704D01*
X183600028Y-138837942D01*
X183647647Y-138885561D01*
X183742885Y-138933180D01*
X184028600Y-138933180D01*
X184123838Y-138885561D01*
X184171457Y-138837942D01*
X183123838Y-138837942D02*
X183076219Y-138885561D01*
X183123838Y-138933180D01*
X183171457Y-138885561D01*
X183123838Y-138837942D01*
X183123838Y-138933180D01*
X182171457Y-137933180D02*
X182647647Y-137933180D01*
X182695266Y-138409371D01*
X182647647Y-138361752D01*
X182552409Y-138314133D01*
X182314314Y-138314133D01*
X182219076Y-138361752D01*
X182171457Y-138409371D01*
X182123838Y-138504609D01*
X182123838Y-138742704D01*
X182171457Y-138837942D01*
X182219076Y-138885561D01*
X182314314Y-138933180D01*
X182552409Y-138933180D01*
X182647647Y-138885561D01*
X182695266Y-138837942D01*
X181695266Y-138933180D02*
X181695266Y-138266514D01*
X181695266Y-138361752D02*
X181647647Y-138314133D01*
X181552409Y-138266514D01*
X181409552Y-138266514D01*
X181314314Y-138314133D01*
X181266695Y-138409371D01*
X181266695Y-138933180D01*
X181266695Y-138409371D02*
X181219076Y-138314133D01*
X181123838Y-138266514D01*
X180980980Y-138266514D01*
X180885742Y-138314133D01*
X180838123Y-138409371D01*
X180838123Y-138933180D01*
X180361933Y-138933180D02*
X180361933Y-138266514D01*
X180361933Y-138361752D02*
X180314314Y-138314133D01*
X180219076Y-138266514D01*
X180076219Y-138266514D01*
X179980980Y-138314133D01*
X179933361Y-138409371D01*
X179933361Y-138933180D01*
X179933361Y-138409371D02*
X179885742Y-138314133D01*
X179790504Y-138266514D01*
X179647647Y-138266514D01*
X179552409Y-138314133D01*
X179504790Y-138409371D01*
X179504790Y-138933180D01*
X179266695Y-139028419D02*
X178504790Y-139028419D01*
X178123838Y-138933180D02*
X178219076Y-138885561D01*
X178266695Y-138790323D01*
X178266695Y-137933180D01*
X177314314Y-138933180D02*
X177314314Y-138409371D01*
X177361933Y-138314133D01*
X177457171Y-138266514D01*
X177647647Y-138266514D01*
X177742885Y-138314133D01*
X177314314Y-138885561D02*
X177409552Y-138933180D01*
X177647647Y-138933180D01*
X177742885Y-138885561D01*
X177790504Y-138790323D01*
X177790504Y-138695085D01*
X177742885Y-138599847D01*
X177647647Y-138552228D01*
X177409552Y-138552228D01*
X177314314Y-138504609D01*
X176838123Y-138266514D02*
X176838123Y-139266514D01*
X176838123Y-138314133D02*
X176742885Y-138266514D01*
X176552409Y-138266514D01*
X176457171Y-138314133D01*
X176409552Y-138361752D01*
X176361933Y-138456990D01*
X176361933Y-138742704D01*
X176409552Y-138837942D01*
X176457171Y-138885561D01*
X176552409Y-138933180D01*
X176742885Y-138933180D01*
X176838123Y-138885561D01*
X175552409Y-138885561D02*
X175647647Y-138933180D01*
X175838123Y-138933180D01*
X175933361Y-138885561D01*
X175980980Y-138790323D01*
X175980980Y-138409371D01*
X175933361Y-138314133D01*
X175838123Y-138266514D01*
X175647647Y-138266514D01*
X175552409Y-138314133D01*
X175504790Y-138409371D01*
X175504790Y-138504609D01*
X175980980Y-138599847D01*
X174933361Y-138933180D02*
X175028600Y-138885561D01*
X175076219Y-138790323D01*
X175076219Y-137933180D01*
X174790504Y-139028419D02*
X174028600Y-139028419D01*
X173790504Y-138266514D02*
X173790504Y-139266514D01*
X173790504Y-138314133D02*
X173695266Y-138266514D01*
X173504790Y-138266514D01*
X173409552Y-138314133D01*
X173361933Y-138361752D01*
X173314314Y-138456990D01*
X173314314Y-138742704D01*
X173361933Y-138837942D01*
X173409552Y-138885561D01*
X173504790Y-138933180D01*
X173695266Y-138933180D01*
X173790504Y-138885561D01*
X172885742Y-138933180D02*
X172885742Y-138266514D01*
X172885742Y-137933180D02*
X172933361Y-137980800D01*
X172885742Y-138028419D01*
X172838123Y-137980800D01*
X172885742Y-137933180D01*
X172885742Y-138028419D01*
X172409552Y-138266514D02*
X172409552Y-138933180D01*
X172409552Y-138361752D02*
X172361933Y-138314133D01*
X172266695Y-138266514D01*
X172123838Y-138266514D01*
X172028600Y-138314133D01*
X171980980Y-138409371D01*
X171980980Y-138933180D01*
X153783895Y-100680780D02*
X154355323Y-100680780D01*
X154069609Y-100680780D02*
X154069609Y-99680780D01*
X154164847Y-99823638D01*
X154260085Y-99918876D01*
X154355323Y-99966495D01*
X153402942Y-99776019D02*
X153355323Y-99728400D01*
X153260085Y-99680780D01*
X153021990Y-99680780D01*
X152926752Y-99728400D01*
X152879133Y-99776019D01*
X152831514Y-99871257D01*
X152831514Y-99966495D01*
X152879133Y-100109352D01*
X153450561Y-100680780D01*
X152831514Y-100680780D01*
X152498180Y-100680780D02*
X151974371Y-100014114D01*
X152498180Y-100014114D02*
X151974371Y-100680780D01*
X151117228Y-99680780D02*
X151593419Y-99680780D01*
X151641038Y-100156971D01*
X151593419Y-100109352D01*
X151498180Y-100061733D01*
X151260085Y-100061733D01*
X151164847Y-100109352D01*
X151117228Y-100156971D01*
X151069609Y-100252209D01*
X151069609Y-100490304D01*
X151117228Y-100585542D01*
X151164847Y-100633161D01*
X151260085Y-100680780D01*
X151498180Y-100680780D01*
X151593419Y-100633161D01*
X151641038Y-100585542D01*
X149926752Y-100633161D02*
X149783895Y-100680780D01*
X149545800Y-100680780D01*
X149450561Y-100633161D01*
X149402942Y-100585542D01*
X149355323Y-100490304D01*
X149355323Y-100395066D01*
X149402942Y-100299828D01*
X149450561Y-100252209D01*
X149545800Y-100204590D01*
X149736276Y-100156971D01*
X149831514Y-100109352D01*
X149879133Y-100061733D01*
X149926752Y-99966495D01*
X149926752Y-99871257D01*
X149879133Y-99776019D01*
X149831514Y-99728400D01*
X149736276Y-99680780D01*
X149498180Y-99680780D01*
X149355323Y-99728400D01*
X148450561Y-100680780D02*
X148926752Y-100680780D01*
X148926752Y-99680780D01*
X147926752Y-99680780D02*
X147736276Y-99680780D01*
X147641038Y-99728400D01*
X147545800Y-99823638D01*
X147498180Y-100014114D01*
X147498180Y-100347447D01*
X147545800Y-100537923D01*
X147641038Y-100633161D01*
X147736276Y-100680780D01*
X147926752Y-100680780D01*
X148021990Y-100633161D01*
X148117228Y-100537923D01*
X148164847Y-100347447D01*
X148164847Y-100014114D01*
X148117228Y-99823638D01*
X148021990Y-99728400D01*
X147926752Y-99680780D01*
X147212466Y-99680780D02*
X146641038Y-99680780D01*
X146926752Y-100680780D02*
X146926752Y-99680780D01*
X187458123Y-99833180D02*
X187934314Y-99833180D01*
X187981933Y-100309371D01*
X187934314Y-100261752D01*
X187839076Y-100214133D01*
X187600980Y-100214133D01*
X187505742Y-100261752D01*
X187458123Y-100309371D01*
X187410504Y-100404609D01*
X187410504Y-100642704D01*
X187458123Y-100737942D01*
X187505742Y-100785561D01*
X187600980Y-100833180D01*
X187839076Y-100833180D01*
X187934314Y-100785561D01*
X187981933Y-100737942D01*
X186981933Y-100737942D02*
X186934314Y-100785561D01*
X186981933Y-100833180D01*
X187029552Y-100785561D01*
X186981933Y-100737942D01*
X186981933Y-100833180D01*
X186029552Y-99833180D02*
X186505742Y-99833180D01*
X186553361Y-100309371D01*
X186505742Y-100261752D01*
X186410504Y-100214133D01*
X186172409Y-100214133D01*
X186077171Y-100261752D01*
X186029552Y-100309371D01*
X185981933Y-100404609D01*
X185981933Y-100642704D01*
X186029552Y-100737942D01*
X186077171Y-100785561D01*
X186172409Y-100833180D01*
X186410504Y-100833180D01*
X186505742Y-100785561D01*
X186553361Y-100737942D01*
X185553361Y-100833180D02*
X185553361Y-100166514D01*
X185553361Y-100261752D02*
X185505742Y-100214133D01*
X185410504Y-100166514D01*
X185267647Y-100166514D01*
X185172409Y-100214133D01*
X185124790Y-100309371D01*
X185124790Y-100833180D01*
X185124790Y-100309371D02*
X185077171Y-100214133D01*
X184981933Y-100166514D01*
X184839076Y-100166514D01*
X184743838Y-100214133D01*
X184696219Y-100309371D01*
X184696219Y-100833180D01*
X184220028Y-100833180D02*
X184220028Y-100166514D01*
X184220028Y-100261752D02*
X184172409Y-100214133D01*
X184077171Y-100166514D01*
X183934314Y-100166514D01*
X183839076Y-100214133D01*
X183791457Y-100309371D01*
X183791457Y-100833180D01*
X183791457Y-100309371D02*
X183743838Y-100214133D01*
X183648600Y-100166514D01*
X183505742Y-100166514D01*
X183410504Y-100214133D01*
X183362885Y-100309371D01*
X183362885Y-100833180D01*
%TO.C,kibuzzard-63169E39*%
G36*
X145021824Y-139088760D02*
G01*
X144863418Y-139065263D01*
X144708078Y-139026352D01*
X144557300Y-138972403D01*
X144412536Y-138903935D01*
X144275180Y-138821607D01*
X144146556Y-138726212D01*
X144027900Y-138618669D01*
X143920358Y-138500014D01*
X143824963Y-138371389D01*
X143742635Y-138234034D01*
X143674167Y-138089270D01*
X143620218Y-137938492D01*
X143586263Y-137802938D01*
X145694400Y-137802938D01*
X145706306Y-137972403D01*
X145742025Y-138125200D01*
X145800763Y-138258947D01*
X145881725Y-138371263D01*
X145984119Y-138461353D01*
X146107150Y-138528425D01*
X146250025Y-138570097D01*
X146411950Y-138583988D01*
X146565938Y-138578431D01*
X146723100Y-138561763D01*
X146796125Y-138549063D01*
X147316825Y-138549063D01*
X148510625Y-138549063D01*
X148510625Y-138225213D01*
X148097875Y-138225213D01*
X148097875Y-137126662D01*
X148301075Y-137239375D01*
X148494750Y-137317162D01*
X148596848Y-137056812D01*
X148818600Y-137056812D01*
X148887061Y-137277773D01*
X148959094Y-137489803D01*
X149034698Y-137692904D01*
X149113875Y-137887075D01*
X149219708Y-138129257D01*
X149321308Y-138349919D01*
X149418675Y-138549063D01*
X149745700Y-138549063D01*
X149841479Y-138349919D01*
X149938317Y-138129257D01*
X150036213Y-137887075D01*
X150074967Y-137783888D01*
X150472775Y-137783888D01*
X150474363Y-137863263D01*
X150479125Y-137929938D01*
X151447500Y-137929938D01*
X151417338Y-138060509D01*
X151326850Y-138160125D01*
X151188738Y-138223228D01*
X151015700Y-138244263D01*
X150791863Y-138218863D01*
X150612475Y-138168063D01*
X150558500Y-138501438D01*
X150774400Y-138560175D01*
X151031575Y-138583988D01*
X151212153Y-138571684D01*
X151310665Y-138549063D01*
X151984075Y-138549063D01*
X152393650Y-138549063D01*
X152472628Y-138362134D01*
X152563513Y-138182350D01*
X152663922Y-138004947D01*
X152771475Y-137825163D01*
X152974675Y-137825163D01*
X152974675Y-138549063D01*
X153365200Y-138549063D01*
X153365200Y-136612312D01*
X153239788Y-136588500D01*
X153101675Y-136572625D01*
X152968325Y-136564687D01*
X152857200Y-136561512D01*
X152696863Y-136571037D01*
X152552400Y-136599612D01*
X152425400Y-136648031D01*
X152317450Y-136717087D01*
X152166638Y-136918700D01*
X152127347Y-137051653D01*
X152114250Y-137206037D01*
X152131713Y-137369550D01*
X152184100Y-137517188D01*
X152276969Y-137640219D01*
X152415875Y-137729913D01*
X152301575Y-137912475D01*
X152184100Y-138122025D01*
X152074563Y-138341100D01*
X151984075Y-138549063D01*
X151310665Y-138549063D01*
X151372888Y-138534775D01*
X151512588Y-138473656D01*
X151630063Y-138388725D01*
X151724122Y-138280378D01*
X151793575Y-138149013D01*
X151836438Y-137994231D01*
X151850725Y-137815638D01*
X151835644Y-137630694D01*
X151790400Y-137469563D01*
X151720550Y-137332641D01*
X151631650Y-137220325D01*
X151526081Y-137132616D01*
X151406225Y-137069512D01*
X151277638Y-137031412D01*
X151145875Y-137018712D01*
X150943381Y-137040408D01*
X150776164Y-137105496D01*
X150644225Y-137213975D01*
X150548975Y-137364082D01*
X150491825Y-137554053D01*
X150472775Y-137783888D01*
X150074967Y-137783888D01*
X150109138Y-137692904D01*
X150180278Y-137489803D01*
X150249632Y-137277773D01*
X150317200Y-137056812D01*
X149907625Y-137056812D01*
X149876272Y-137181431D01*
X149839363Y-137313987D01*
X149798484Y-137450909D01*
X149755225Y-137588625D01*
X149710378Y-137724753D01*
X149664738Y-137856913D01*
X149577425Y-138095038D01*
X149485350Y-137856913D01*
X149434947Y-137724753D01*
X149385338Y-137588625D01*
X149336919Y-137450909D01*
X149290088Y-137313987D01*
X149248416Y-137181431D01*
X149215475Y-137056812D01*
X148818600Y-137056812D01*
X148596848Y-137056812D01*
X148621750Y-136993312D01*
X148456650Y-136920287D01*
X148278850Y-136821862D01*
X148110575Y-136707562D01*
X147974050Y-136583737D01*
X147707350Y-136583737D01*
X147707350Y-138225213D01*
X147316825Y-138225213D01*
X147316825Y-138549063D01*
X146796125Y-138549063D01*
X146869150Y-138536363D01*
X146989800Y-138504613D01*
X146989800Y-136412287D01*
X146599275Y-136345612D01*
X146599275Y-137091737D01*
X146440525Y-137039350D01*
X146288125Y-137025062D01*
X146150806Y-137038953D01*
X146030950Y-137080625D01*
X145845213Y-137239375D01*
X145779728Y-137352484D01*
X145732500Y-137485438D01*
X145703925Y-137636250D01*
X145694400Y-137802938D01*
X143586263Y-137802938D01*
X143581307Y-137783152D01*
X143557810Y-137624746D01*
X143549952Y-137464800D01*
X143557810Y-137304854D01*
X143581307Y-137146448D01*
X143620218Y-136991108D01*
X143674167Y-136840330D01*
X143742635Y-136695566D01*
X143824963Y-136558211D01*
X143920358Y-136429586D01*
X144027900Y-136310931D01*
X144146556Y-136203388D01*
X144275180Y-136107993D01*
X144412536Y-136025665D01*
X144557300Y-135957197D01*
X144708078Y-135903248D01*
X144863418Y-135864337D01*
X145021824Y-135840840D01*
X145181770Y-135832982D01*
X153877830Y-135832982D01*
X154037776Y-135840840D01*
X154196182Y-135864337D01*
X154351522Y-135903248D01*
X154502300Y-135957197D01*
X154647064Y-136025665D01*
X154784420Y-136107993D01*
X154913044Y-136203388D01*
X155031700Y-136310931D01*
X155139242Y-136429586D01*
X155234637Y-136558211D01*
X155316965Y-136695566D01*
X155385433Y-136840330D01*
X155439382Y-136991108D01*
X155478293Y-137146448D01*
X155501790Y-137304854D01*
X155509648Y-137464800D01*
X155501790Y-137624746D01*
X155478293Y-137783152D01*
X155439382Y-137938492D01*
X155385433Y-138089270D01*
X155316965Y-138234034D01*
X155234637Y-138371389D01*
X155139242Y-138500014D01*
X155031700Y-138618669D01*
X154913044Y-138726212D01*
X154784420Y-138821607D01*
X154647064Y-138903935D01*
X154502300Y-138972403D01*
X154351522Y-139026352D01*
X154196182Y-139065263D01*
X154037776Y-139088760D01*
X153877830Y-139096618D01*
X145181770Y-139096618D01*
X145021824Y-139088760D01*
G37*
G36*
X146492913Y-137379075D02*
G01*
X146599275Y-137421937D01*
X146599275Y-138231563D01*
X146505613Y-138244263D01*
X146421475Y-138247438D01*
X146284950Y-138221641D01*
X146180175Y-138144250D01*
X146113500Y-138004947D01*
X146091275Y-137793413D01*
X146108341Y-137608469D01*
X146159538Y-137472738D01*
X146245659Y-137389394D01*
X146367500Y-137361612D01*
X146492913Y-137379075D01*
G37*
G36*
X152911175Y-136902825D02*
G01*
X152974675Y-136910762D01*
X152974675Y-137501313D01*
X152888950Y-137501313D01*
X152716706Y-137481866D01*
X152600025Y-137423525D01*
X152511125Y-137202862D01*
X152534938Y-137067925D01*
X152606375Y-136974262D01*
X152716706Y-136919494D01*
X152857200Y-136901237D01*
X152911175Y-136902825D01*
G37*
G36*
X151271288Y-137371137D02*
G01*
X151363363Y-137440987D01*
X151420513Y-137542588D01*
X151447500Y-137660063D01*
X150850600Y-137660063D01*
X150866475Y-137544175D01*
X150917275Y-137444162D01*
X151006175Y-137372725D01*
X151139525Y-137345737D01*
X151271288Y-137371137D01*
G37*
%TO.C,G\u002A\u002A\u002A*%
G36*
X147597234Y-110097574D02*
G01*
X147638911Y-110249809D01*
X147636402Y-110311044D01*
X147552175Y-110424221D01*
X147228331Y-110460970D01*
X146504712Y-110449486D01*
X146343272Y-110446131D01*
X145507983Y-110459146D01*
X144952490Y-110516639D01*
X144746343Y-110556741D01*
X144574998Y-110531573D01*
X144534466Y-110373922D01*
X144537213Y-110301254D01*
X144620712Y-110188556D01*
X144941809Y-110156220D01*
X145660655Y-110176114D01*
X146576849Y-110181408D01*
X147212877Y-110119155D01*
X147417638Y-110078203D01*
X147597234Y-110097574D01*
G37*
D12*
X147597234Y-110097574D02*
X147638911Y-110249809D01*
X147636402Y-110311044D01*
X147552175Y-110424221D01*
X147228331Y-110460970D01*
X146504712Y-110449486D01*
X146343272Y-110446131D01*
X145507983Y-110459146D01*
X144952490Y-110516639D01*
X144746343Y-110556741D01*
X144574998Y-110531573D01*
X144534466Y-110373922D01*
X144537213Y-110301254D01*
X144620712Y-110188556D01*
X144941809Y-110156220D01*
X145660655Y-110176114D01*
X146576849Y-110181408D01*
X147212877Y-110119155D01*
X147417638Y-110078203D01*
X147597234Y-110097574D01*
G36*
X145804466Y-103133525D02*
G01*
X146443273Y-103126449D01*
X146507424Y-103123639D01*
X147101515Y-103097618D01*
X147356688Y-103054150D01*
X147364249Y-103035327D01*
X147621103Y-102974775D01*
X147632261Y-102975284D01*
X147737490Y-103056753D01*
X147785237Y-103243837D01*
X147780615Y-103488288D01*
X147728735Y-103741858D01*
X147634709Y-103956299D01*
X147503648Y-104083363D01*
X147382313Y-104115827D01*
X146848255Y-104159901D01*
X146224483Y-104153071D01*
X145820841Y-104093476D01*
X145652448Y-104060538D01*
X145149470Y-104059307D01*
X144816367Y-104060715D01*
X144284705Y-103977963D01*
X144194418Y-103939055D01*
X143966204Y-103755180D01*
X143840624Y-103560368D01*
X144252244Y-103560368D01*
X144260258Y-103586329D01*
X144484237Y-103712621D01*
X144864331Y-103798899D01*
X145195433Y-103794294D01*
X145202177Y-103792372D01*
X145405644Y-103651266D01*
X145388736Y-103636233D01*
X145945577Y-103636233D01*
X146003499Y-103796002D01*
X146281705Y-103884864D01*
X146829351Y-103842314D01*
X147136649Y-103784366D01*
X147334408Y-103706201D01*
X147277300Y-103630873D01*
X146952202Y-103492542D01*
X146507424Y-103441559D01*
X146114654Y-103486573D01*
X145945577Y-103636233D01*
X145388736Y-103636233D01*
X145250375Y-103513218D01*
X144816688Y-103451025D01*
X144487455Y-103471691D01*
X144252244Y-103560368D01*
X143840624Y-103560368D01*
X143807930Y-103509650D01*
X143737773Y-103256278D01*
X143773911Y-103048876D01*
X143934522Y-102941258D01*
X144105018Y-102929298D01*
X144252244Y-103009778D01*
X144252815Y-103016565D01*
X144397924Y-103087573D01*
X144816688Y-103118995D01*
X144877319Y-103123544D01*
X145804466Y-103133525D01*
G37*
X145804466Y-103133525D02*
X146443273Y-103126449D01*
X146507424Y-103123639D01*
X147101515Y-103097618D01*
X147356688Y-103054150D01*
X147364249Y-103035327D01*
X147621103Y-102974775D01*
X147632261Y-102975284D01*
X147737490Y-103056753D01*
X147785237Y-103243837D01*
X147780615Y-103488288D01*
X147728735Y-103741858D01*
X147634709Y-103956299D01*
X147503648Y-104083363D01*
X147382313Y-104115827D01*
X146848255Y-104159901D01*
X146224483Y-104153071D01*
X145820841Y-104093476D01*
X145652448Y-104060538D01*
X145149470Y-104059307D01*
X144816367Y-104060715D01*
X144284705Y-103977963D01*
X144194418Y-103939055D01*
X143966204Y-103755180D01*
X143840624Y-103560368D01*
X144252244Y-103560368D01*
X144260258Y-103586329D01*
X144484237Y-103712621D01*
X144864331Y-103798899D01*
X145195433Y-103794294D01*
X145202177Y-103792372D01*
X145405644Y-103651266D01*
X145388736Y-103636233D01*
X145945577Y-103636233D01*
X146003499Y-103796002D01*
X146281705Y-103884864D01*
X146829351Y-103842314D01*
X147136649Y-103784366D01*
X147334408Y-103706201D01*
X147277300Y-103630873D01*
X146952202Y-103492542D01*
X146507424Y-103441559D01*
X146114654Y-103486573D01*
X145945577Y-103636233D01*
X145388736Y-103636233D01*
X145250375Y-103513218D01*
X144816688Y-103451025D01*
X144487455Y-103471691D01*
X144252244Y-103560368D01*
X143840624Y-103560368D01*
X143807930Y-103509650D01*
X143737773Y-103256278D01*
X143773911Y-103048876D01*
X143934522Y-102941258D01*
X144105018Y-102929298D01*
X144252244Y-103009778D01*
X144252815Y-103016565D01*
X144397924Y-103087573D01*
X144816688Y-103118995D01*
X144877319Y-103123544D01*
X145804466Y-103133525D01*
G36*
X147733627Y-115926189D02*
G01*
X147856457Y-116007157D01*
X147577479Y-116111639D01*
X147238978Y-116125500D01*
X147074466Y-116038577D01*
X147132544Y-115976809D01*
X147521318Y-115912900D01*
X147733627Y-115926189D01*
G37*
X147733627Y-115926189D02*
X147856457Y-116007157D01*
X147577479Y-116111639D01*
X147238978Y-116125500D01*
X147074466Y-116038577D01*
X147132544Y-115976809D01*
X147521318Y-115912900D01*
X147733627Y-115926189D01*
G36*
X147508499Y-107845514D02*
G01*
X147638911Y-108015087D01*
X147685770Y-108087402D01*
X147811374Y-108267422D01*
X147881084Y-108345939D01*
X147898794Y-108353575D01*
X147828250Y-108450580D01*
X147506680Y-108559026D01*
X147128938Y-108610400D01*
X146846385Y-108592497D01*
X147018022Y-108515150D01*
X147112248Y-108484941D01*
X147338145Y-108331586D01*
X147261133Y-108193891D01*
X146900439Y-108134150D01*
X146610612Y-108162834D01*
X146591795Y-108292900D01*
X146619811Y-108393307D01*
X146342489Y-108451650D01*
X146110903Y-108421624D01*
X145945577Y-108292900D01*
X145867005Y-108200324D01*
X145522244Y-108134150D01*
X145412147Y-108138360D01*
X145141415Y-108223542D01*
X145150889Y-108372127D01*
X145451688Y-108522854D01*
X145507855Y-108539667D01*
X145615848Y-108602180D01*
X145240022Y-108597546D01*
X144914355Y-108558190D01*
X144696247Y-108439766D01*
X144591196Y-108204245D01*
X144506815Y-107839206D01*
X145931752Y-107877714D01*
X146688415Y-107890859D01*
X147221283Y-107871281D01*
X147396737Y-107806905D01*
X147415933Y-107789063D01*
X147508499Y-107845514D01*
G37*
X147508499Y-107845514D02*
X147638911Y-108015087D01*
X147685770Y-108087402D01*
X147811374Y-108267422D01*
X147881084Y-108345939D01*
X147898794Y-108353575D01*
X147828250Y-108450580D01*
X147506680Y-108559026D01*
X147128938Y-108610400D01*
X146846385Y-108592497D01*
X147018022Y-108515150D01*
X147112248Y-108484941D01*
X147338145Y-108331586D01*
X147261133Y-108193891D01*
X146900439Y-108134150D01*
X146610612Y-108162834D01*
X146591795Y-108292900D01*
X146619811Y-108393307D01*
X146342489Y-108451650D01*
X146110903Y-108421624D01*
X145945577Y-108292900D01*
X145867005Y-108200324D01*
X145522244Y-108134150D01*
X145412147Y-108138360D01*
X145141415Y-108223542D01*
X145150889Y-108372127D01*
X145451688Y-108522854D01*
X145507855Y-108539667D01*
X145615848Y-108602180D01*
X145240022Y-108597546D01*
X144914355Y-108558190D01*
X144696247Y-108439766D01*
X144591196Y-108204245D01*
X144506815Y-107839206D01*
X145931752Y-107877714D01*
X146688415Y-107890859D01*
X147221283Y-107871281D01*
X147396737Y-107806905D01*
X147415933Y-107789063D01*
X147508499Y-107845514D01*
G36*
X147357099Y-105514713D02*
G01*
X147510376Y-105492844D01*
X147785048Y-105480332D01*
X147898730Y-105562823D01*
X147921133Y-105772133D01*
X147907127Y-105881631D01*
X147646194Y-106197645D01*
X147081346Y-106397531D01*
X146246353Y-106467275D01*
X146221927Y-106467246D01*
X145431342Y-106416684D01*
X144922462Y-106255336D01*
X144643091Y-105977873D01*
X145157220Y-105977873D01*
X145163212Y-105985612D01*
X145472469Y-106080674D01*
X146227800Y-106110087D01*
X146350234Y-106109196D01*
X147007687Y-106064603D01*
X147331994Y-105977992D01*
X147261747Y-105884524D01*
X146735536Y-105819363D01*
X145888440Y-105803793D01*
X145303595Y-105858047D01*
X145157220Y-105977873D01*
X144643091Y-105977873D01*
X144626995Y-105961887D01*
X144573018Y-105839018D01*
X144596561Y-105610873D01*
X144804683Y-105485086D01*
X145167473Y-105487890D01*
X145496654Y-105532645D01*
X145888440Y-105549646D01*
X146461177Y-105574499D01*
X147357099Y-105514713D01*
G37*
X147357099Y-105514713D02*
X147510376Y-105492844D01*
X147785048Y-105480332D01*
X147898730Y-105562823D01*
X147921133Y-105772133D01*
X147907127Y-105881631D01*
X147646194Y-106197645D01*
X147081346Y-106397531D01*
X146246353Y-106467275D01*
X146221927Y-106467246D01*
X145431342Y-106416684D01*
X144922462Y-106255336D01*
X144643091Y-105977873D01*
X145157220Y-105977873D01*
X145163212Y-105985612D01*
X145472469Y-106080674D01*
X146227800Y-106110087D01*
X146350234Y-106109196D01*
X147007687Y-106064603D01*
X147331994Y-105977992D01*
X147261747Y-105884524D01*
X146735536Y-105819363D01*
X145888440Y-105803793D01*
X145303595Y-105858047D01*
X145157220Y-105977873D01*
X144643091Y-105977873D01*
X144626995Y-105961887D01*
X144573018Y-105839018D01*
X144596561Y-105610873D01*
X144804683Y-105485086D01*
X145167473Y-105487890D01*
X145496654Y-105532645D01*
X145888440Y-105549646D01*
X146461177Y-105574499D01*
X147357099Y-105514713D01*
G36*
X147106506Y-116262082D02*
G01*
X147623560Y-116369306D01*
X147637277Y-116376103D01*
X147814946Y-116555291D01*
X147849250Y-116785364D01*
X147830530Y-116842867D01*
X147639228Y-117021343D01*
X147215577Y-117092246D01*
X146891203Y-117105931D01*
X146820725Y-117077430D01*
X147151826Y-116965479D01*
X147364035Y-116880295D01*
X147459225Y-116703036D01*
X147139753Y-116561121D01*
X146507252Y-116485772D01*
X145663355Y-116508212D01*
X145385889Y-116558118D01*
X145123907Y-116703603D01*
X145134933Y-116865389D01*
X145451688Y-116971805D01*
X145641149Y-117015887D01*
X145394608Y-117092244D01*
X145153003Y-117127720D01*
X144759608Y-117133290D01*
X144676986Y-117109540D01*
X144540581Y-116960814D01*
X144562733Y-116746538D01*
X144723150Y-116530267D01*
X145001540Y-116375556D01*
X145528426Y-116277265D01*
X146330200Y-116231588D01*
X147106506Y-116262082D01*
G37*
X147106506Y-116262082D02*
X147623560Y-116369306D01*
X147637277Y-116376103D01*
X147814946Y-116555291D01*
X147849250Y-116785364D01*
X147830530Y-116842867D01*
X147639228Y-117021343D01*
X147215577Y-117092246D01*
X146891203Y-117105931D01*
X146820725Y-117077430D01*
X147151826Y-116965479D01*
X147364035Y-116880295D01*
X147459225Y-116703036D01*
X147139753Y-116561121D01*
X146507252Y-116485772D01*
X145663355Y-116508212D01*
X145385889Y-116558118D01*
X145123907Y-116703603D01*
X145134933Y-116865389D01*
X145451688Y-116971805D01*
X145641149Y-117015887D01*
X145394608Y-117092244D01*
X145153003Y-117127720D01*
X144759608Y-117133290D01*
X144676986Y-117109540D01*
X144540581Y-116960814D01*
X144562733Y-116746538D01*
X144723150Y-116530267D01*
X145001540Y-116375556D01*
X145528426Y-116277265D01*
X146330200Y-116231588D01*
X147106506Y-116262082D01*
G36*
X145271942Y-112897973D02*
G01*
X145534051Y-112935021D01*
X145381133Y-113055400D01*
X145331554Y-113082153D01*
X145245502Y-113170212D01*
X145496190Y-113206847D01*
X146197176Y-113214150D01*
X146534413Y-113211645D01*
X147177086Y-113172605D01*
X147444368Y-113075243D01*
X147489807Y-113049348D01*
X147554133Y-113113276D01*
X147583892Y-113293525D01*
X147579171Y-113407101D01*
X147532839Y-113542110D01*
X147452000Y-113551493D01*
X147406564Y-113532792D01*
X146937115Y-113474842D01*
X146147837Y-113452275D01*
X145553244Y-113457923D01*
X145226630Y-113486570D01*
X145324688Y-113547525D01*
X145573391Y-113633346D01*
X145590255Y-113734237D01*
X145098911Y-113769775D01*
X144900888Y-113765118D01*
X144664892Y-113716929D01*
X144558966Y-113585501D01*
X144534466Y-113333212D01*
X144540959Y-113173759D01*
X144604569Y-112994618D01*
X144777291Y-112914844D01*
X145108840Y-112896650D01*
X145271942Y-112897973D01*
G37*
X145271942Y-112897973D02*
X145534051Y-112935021D01*
X145381133Y-113055400D01*
X145331554Y-113082153D01*
X145245502Y-113170212D01*
X145496190Y-113206847D01*
X146197176Y-113214150D01*
X146534413Y-113211645D01*
X147177086Y-113172605D01*
X147444368Y-113075243D01*
X147489807Y-113049348D01*
X147554133Y-113113276D01*
X147583892Y-113293525D01*
X147579171Y-113407101D01*
X147532839Y-113542110D01*
X147452000Y-113551493D01*
X147406564Y-113532792D01*
X146937115Y-113474842D01*
X146147837Y-113452275D01*
X145553244Y-113457923D01*
X145226630Y-113486570D01*
X145324688Y-113547525D01*
X145573391Y-113633346D01*
X145590255Y-113734237D01*
X145098911Y-113769775D01*
X144900888Y-113765118D01*
X144664892Y-113716929D01*
X144558966Y-113585501D01*
X144534466Y-113333212D01*
X144540959Y-113173759D01*
X144604569Y-112994618D01*
X144777291Y-112914844D01*
X145108840Y-112896650D01*
X145271942Y-112897973D01*
G36*
X147103083Y-104363323D02*
G01*
X147673377Y-104324150D01*
X147762145Y-104326402D01*
X147934489Y-104382301D01*
X147771998Y-104471830D01*
X147356688Y-104539276D01*
X147029554Y-104590194D01*
X146792244Y-104724933D01*
X146898164Y-104818196D01*
X147356688Y-104919462D01*
X147688495Y-104962416D01*
X147921133Y-105039189D01*
X147908421Y-105075259D01*
X147642895Y-105146206D01*
X147001909Y-105125617D01*
X145944004Y-105012942D01*
X145173283Y-104913353D01*
X144763400Y-104839328D01*
X144717530Y-104774987D01*
X144757218Y-104761347D01*
X145779357Y-104761347D01*
X146070032Y-104800400D01*
X146212523Y-104798847D01*
X146497548Y-104761352D01*
X146247301Y-104684727D01*
X146145539Y-104673941D01*
X145807311Y-104719730D01*
X145779357Y-104761347D01*
X144757218Y-104761347D01*
X144953547Y-104693872D01*
X144954197Y-104693690D01*
X145506950Y-104580248D01*
X146145539Y-104483199D01*
X146302093Y-104459408D01*
X147103083Y-104363323D01*
G37*
X147103083Y-104363323D02*
X147673377Y-104324150D01*
X147762145Y-104326402D01*
X147934489Y-104382301D01*
X147771998Y-104471830D01*
X147356688Y-104539276D01*
X147029554Y-104590194D01*
X146792244Y-104724933D01*
X146898164Y-104818196D01*
X147356688Y-104919462D01*
X147688495Y-104962416D01*
X147921133Y-105039189D01*
X147908421Y-105075259D01*
X147642895Y-105146206D01*
X147001909Y-105125617D01*
X145944004Y-105012942D01*
X145173283Y-104913353D01*
X144763400Y-104839328D01*
X144717530Y-104774987D01*
X144757218Y-104761347D01*
X145779357Y-104761347D01*
X146070032Y-104800400D01*
X146212523Y-104798847D01*
X146497548Y-104761352D01*
X146247301Y-104684727D01*
X146145539Y-104673941D01*
X145807311Y-104719730D01*
X145779357Y-104761347D01*
X144757218Y-104761347D01*
X144953547Y-104693872D01*
X144954197Y-104693690D01*
X145506950Y-104580248D01*
X146145539Y-104483199D01*
X146302093Y-104459408D01*
X147103083Y-104363323D01*
G36*
X147798491Y-118334543D02*
G01*
X147820683Y-118472743D01*
X147702175Y-118580750D01*
X147469676Y-118630544D01*
X147265217Y-118613264D01*
X146700420Y-118563765D01*
X146324635Y-118539129D01*
X146038934Y-118556255D01*
X146183156Y-118619903D01*
X146746479Y-118698431D01*
X147080930Y-118733831D01*
X147556888Y-118815904D01*
X147482184Y-118896863D01*
X146862800Y-118991796D01*
X146086688Y-119085089D01*
X147003911Y-119048791D01*
X147510606Y-119035753D01*
X147846023Y-119070573D01*
X147921190Y-119189103D01*
X147899792Y-119264693D01*
X147726924Y-119331212D01*
X147263581Y-119359687D01*
X146373043Y-119365712D01*
X145642752Y-119354689D01*
X144878766Y-119298109D01*
X144611112Y-119204837D01*
X144862480Y-119087715D01*
X145655563Y-118959589D01*
X146353327Y-118875358D01*
X145517903Y-118762743D01*
X145491947Y-118759188D01*
X144892516Y-118642834D01*
X144594145Y-118521122D01*
X144591126Y-118516532D01*
X144634756Y-118441158D01*
X144980192Y-118416108D01*
X145753360Y-118431665D01*
X145969135Y-118437473D01*
X146785805Y-118433686D01*
X147195455Y-118382682D01*
X147278419Y-118352269D01*
X147653796Y-118294150D01*
X147798491Y-118334543D01*
G37*
X147798491Y-118334543D02*
X147820683Y-118472743D01*
X147702175Y-118580750D01*
X147469676Y-118630544D01*
X147265217Y-118613264D01*
X146700420Y-118563765D01*
X146324635Y-118539129D01*
X146038934Y-118556255D01*
X146183156Y-118619903D01*
X146746479Y-118698431D01*
X147080930Y-118733831D01*
X147556888Y-118815904D01*
X147482184Y-118896863D01*
X146862800Y-118991796D01*
X146086688Y-119085089D01*
X147003911Y-119048791D01*
X147510606Y-119035753D01*
X147846023Y-119070573D01*
X147921190Y-119189103D01*
X147899792Y-119264693D01*
X147726924Y-119331212D01*
X147263581Y-119359687D01*
X146373043Y-119365712D01*
X145642752Y-119354689D01*
X144878766Y-119298109D01*
X144611112Y-119204837D01*
X144862480Y-119087715D01*
X145655563Y-118959589D01*
X146353327Y-118875358D01*
X145517903Y-118762743D01*
X145491947Y-118759188D01*
X144892516Y-118642834D01*
X144594145Y-118521122D01*
X144591126Y-118516532D01*
X144634756Y-118441158D01*
X144980192Y-118416108D01*
X145753360Y-118431665D01*
X145969135Y-118437473D01*
X146785805Y-118433686D01*
X147195455Y-118382682D01*
X147278419Y-118352269D01*
X147653796Y-118294150D01*
X147798491Y-118334543D01*
G36*
X146145011Y-108924680D02*
G01*
X146919183Y-108888919D01*
X147254629Y-108808837D01*
X147360584Y-108752942D01*
X147669105Y-108689775D01*
X147780274Y-108724688D01*
X147885175Y-108866198D01*
X147919421Y-109059015D01*
X147875631Y-109240359D01*
X147746424Y-109347453D01*
X147561967Y-109353843D01*
X147159227Y-109280578D01*
X146725582Y-109201724D01*
X146372618Y-109256451D01*
X146095264Y-109462487D01*
X145938689Y-109596624D01*
X145478993Y-109798521D01*
X144926392Y-109886226D01*
X144386026Y-109849174D01*
X143963036Y-109676795D01*
X143915233Y-109636874D01*
X143768205Y-109426255D01*
X143760953Y-109399589D01*
X144317361Y-109399589D01*
X144552645Y-109514433D01*
X145027502Y-109548111D01*
X145030662Y-109547939D01*
X145401309Y-109474541D01*
X145608051Y-109344766D01*
X145600984Y-109221402D01*
X145330206Y-109167240D01*
X145134717Y-109174426D01*
X144563897Y-109238604D01*
X144425521Y-109272925D01*
X144317361Y-109399589D01*
X143760953Y-109399589D01*
X143700516Y-109177360D01*
X143711820Y-108939063D01*
X143801770Y-108760243D01*
X143970022Y-108689775D01*
X144099852Y-108703207D01*
X144252244Y-108808837D01*
X144345159Y-108871644D01*
X144781714Y-108915302D01*
X145330206Y-108923062D01*
X145672213Y-108927900D01*
X146145011Y-108924680D01*
G37*
X146145011Y-108924680D02*
X146919183Y-108888919D01*
X147254629Y-108808837D01*
X147360584Y-108752942D01*
X147669105Y-108689775D01*
X147780274Y-108724688D01*
X147885175Y-108866198D01*
X147919421Y-109059015D01*
X147875631Y-109240359D01*
X147746424Y-109347453D01*
X147561967Y-109353843D01*
X147159227Y-109280578D01*
X146725582Y-109201724D01*
X146372618Y-109256451D01*
X146095264Y-109462487D01*
X145938689Y-109596624D01*
X145478993Y-109798521D01*
X144926392Y-109886226D01*
X144386026Y-109849174D01*
X143963036Y-109676795D01*
X143915233Y-109636874D01*
X143768205Y-109426255D01*
X143760953Y-109399589D01*
X144317361Y-109399589D01*
X144552645Y-109514433D01*
X145027502Y-109548111D01*
X145030662Y-109547939D01*
X145401309Y-109474541D01*
X145608051Y-109344766D01*
X145600984Y-109221402D01*
X145330206Y-109167240D01*
X145134717Y-109174426D01*
X144563897Y-109238604D01*
X144425521Y-109272925D01*
X144317361Y-109399589D01*
X143760953Y-109399589D01*
X143700516Y-109177360D01*
X143711820Y-108939063D01*
X143801770Y-108760243D01*
X143970022Y-108689775D01*
X144099852Y-108703207D01*
X144252244Y-108808837D01*
X144345159Y-108871644D01*
X144781714Y-108915302D01*
X145330206Y-108923062D01*
X145672213Y-108927900D01*
X146145011Y-108924680D01*
G36*
X146679820Y-111991107D02*
G01*
X147257274Y-111870362D01*
X147469577Y-111789649D01*
X147430824Y-111697539D01*
X147278940Y-111578192D01*
X146922198Y-111517366D01*
X146539688Y-111509170D01*
X145917232Y-111568405D01*
X145771004Y-111592131D01*
X145331392Y-111616674D01*
X144940611Y-111512260D01*
X144667866Y-111337788D01*
X144633791Y-111275282D01*
X145098911Y-111275282D01*
X145166623Y-111340308D01*
X145569413Y-111374501D01*
X145747867Y-111360510D01*
X146111295Y-111280731D01*
X146100647Y-111192220D01*
X145686874Y-111150400D01*
X145336311Y-111172235D01*
X145098911Y-111275282D01*
X144633791Y-111275282D01*
X144546680Y-111115489D01*
X144592539Y-110912212D01*
X144816688Y-110793212D01*
X144926011Y-110780809D01*
X145098911Y-110828215D01*
X145283802Y-110879583D01*
X145686874Y-110900888D01*
X145826235Y-110908253D01*
X146513425Y-110905788D01*
X147127853Y-110873589D01*
X147452000Y-110813056D01*
X147551519Y-110792272D01*
X147616630Y-110892431D01*
X147611519Y-111049640D01*
X147477962Y-111157253D01*
X147145022Y-111166225D01*
X147117167Y-111164487D01*
X146824801Y-111169619D01*
X146946769Y-111251577D01*
X147497800Y-111420996D01*
X147947671Y-111588991D01*
X148203355Y-111890514D01*
X148177736Y-112034981D01*
X148002567Y-112134623D01*
X147568355Y-112152091D01*
X147474733Y-112151264D01*
X147045806Y-112191306D01*
X146933355Y-112341025D01*
X147016211Y-112470461D01*
X147356688Y-112539462D01*
X147366234Y-112539489D01*
X147703836Y-112591151D01*
X147765847Y-112687335D01*
X147497800Y-112747673D01*
X147394789Y-112748140D01*
X146827683Y-112712626D01*
X146089795Y-112635878D01*
X145358155Y-112540353D01*
X144809797Y-112448511D01*
X144621750Y-112382811D01*
X144780071Y-112331121D01*
X144965364Y-112292845D01*
X145663355Y-112292845D01*
X145715350Y-112313389D01*
X146086688Y-112369729D01*
X146303151Y-112382207D01*
X146510022Y-112338533D01*
X146462331Y-112303189D01*
X146086688Y-112261650D01*
X145893813Y-112265097D01*
X145663355Y-112292845D01*
X144965364Y-112292845D01*
X145325083Y-112218538D01*
X146086688Y-112090534D01*
X146105904Y-112087305D01*
X146679820Y-111991107D01*
G37*
X146679820Y-111991107D02*
X147257274Y-111870362D01*
X147469577Y-111789649D01*
X147430824Y-111697539D01*
X147278940Y-111578192D01*
X146922198Y-111517366D01*
X146539688Y-111509170D01*
X145917232Y-111568405D01*
X145771004Y-111592131D01*
X145331392Y-111616674D01*
X144940611Y-111512260D01*
X144667866Y-111337788D01*
X144633791Y-111275282D01*
X145098911Y-111275282D01*
X145166623Y-111340308D01*
X145569413Y-111374501D01*
X145747867Y-111360510D01*
X146111295Y-111280731D01*
X146100647Y-111192220D01*
X145686874Y-111150400D01*
X145336311Y-111172235D01*
X145098911Y-111275282D01*
X144633791Y-111275282D01*
X144546680Y-111115489D01*
X144592539Y-110912212D01*
X144816688Y-110793212D01*
X144926011Y-110780809D01*
X145098911Y-110828215D01*
X145283802Y-110879583D01*
X145686874Y-110900888D01*
X145826235Y-110908253D01*
X146513425Y-110905788D01*
X147127853Y-110873589D01*
X147452000Y-110813056D01*
X147551519Y-110792272D01*
X147616630Y-110892431D01*
X147611519Y-111049640D01*
X147477962Y-111157253D01*
X147145022Y-111166225D01*
X147117167Y-111164487D01*
X146824801Y-111169619D01*
X146946769Y-111251577D01*
X147497800Y-111420996D01*
X147947671Y-111588991D01*
X148203355Y-111890514D01*
X148177736Y-112034981D01*
X148002567Y-112134623D01*
X147568355Y-112152091D01*
X147474733Y-112151264D01*
X147045806Y-112191306D01*
X146933355Y-112341025D01*
X147016211Y-112470461D01*
X147356688Y-112539462D01*
X147366234Y-112539489D01*
X147703836Y-112591151D01*
X147765847Y-112687335D01*
X147497800Y-112747673D01*
X147394789Y-112748140D01*
X146827683Y-112712626D01*
X146089795Y-112635878D01*
X145358155Y-112540353D01*
X144809797Y-112448511D01*
X144621750Y-112382811D01*
X144780071Y-112331121D01*
X144965364Y-112292845D01*
X145663355Y-112292845D01*
X145715350Y-112313389D01*
X146086688Y-112369729D01*
X146303151Y-112382207D01*
X146510022Y-112338533D01*
X146462331Y-112303189D01*
X146086688Y-112261650D01*
X145893813Y-112265097D01*
X145663355Y-112292845D01*
X144965364Y-112292845D01*
X145325083Y-112218538D01*
X146086688Y-112090534D01*
X146105904Y-112087305D01*
X146679820Y-111991107D01*
G36*
X147568355Y-117440458D02*
G01*
X147665629Y-117465304D01*
X147932781Y-117637749D01*
X147778431Y-117837957D01*
X147265642Y-118025159D01*
X146457479Y-118158587D01*
X145954012Y-118151079D01*
X145302671Y-118051671D01*
X144760841Y-117899157D01*
X144534466Y-117738525D01*
X145240022Y-117738525D01*
X145240560Y-117744541D01*
X145483068Y-117830448D01*
X146204281Y-117857587D01*
X146723081Y-117841128D01*
X147204910Y-117777134D01*
X147320162Y-117691527D01*
X146977349Y-117613227D01*
X146754155Y-117594605D01*
X146058893Y-117587900D01*
X145481221Y-117641135D01*
X145240022Y-117738525D01*
X144534466Y-117738525D01*
X144535311Y-117731332D01*
X144766702Y-117580871D01*
X145284367Y-117425395D01*
X145762151Y-117343055D01*
X146058893Y-117332909D01*
X146657037Y-117312458D01*
X147568355Y-117440458D01*
G37*
X147568355Y-117440458D02*
X147665629Y-117465304D01*
X147932781Y-117637749D01*
X147778431Y-117837957D01*
X147265642Y-118025159D01*
X146457479Y-118158587D01*
X145954012Y-118151079D01*
X145302671Y-118051671D01*
X144760841Y-117899157D01*
X144534466Y-117738525D01*
X145240022Y-117738525D01*
X145240560Y-117744541D01*
X145483068Y-117830448D01*
X146204281Y-117857587D01*
X146723081Y-117841128D01*
X147204910Y-117777134D01*
X147320162Y-117691527D01*
X146977349Y-117613227D01*
X146754155Y-117594605D01*
X146058893Y-117587900D01*
X145481221Y-117641135D01*
X145240022Y-117738525D01*
X144534466Y-117738525D01*
X144535311Y-117731332D01*
X144766702Y-117580871D01*
X145284367Y-117425395D01*
X145762151Y-117343055D01*
X146058893Y-117332909D01*
X146657037Y-117312458D01*
X147568355Y-117440458D01*
G36*
X147381549Y-113999304D02*
G01*
X147439834Y-113976871D01*
X147585855Y-113986929D01*
X147634589Y-114147093D01*
X147642688Y-114192163D01*
X147839542Y-114446740D01*
X148216064Y-114702718D01*
X148604082Y-115004226D01*
X148560997Y-115330790D01*
X148003908Y-115613529D01*
X147904772Y-115641835D01*
X147224158Y-115733809D01*
X146544820Y-115682586D01*
X146003377Y-115496181D01*
X145723694Y-115366060D01*
X145390120Y-115284986D01*
X145194108Y-115309094D01*
X145250619Y-115446041D01*
X145311757Y-115565750D01*
X145057971Y-115578826D01*
X144832468Y-115532496D01*
X144616597Y-115377683D01*
X144639012Y-115191822D01*
X144919079Y-115048812D01*
X145002745Y-115029590D01*
X145242226Y-114992624D01*
X145487785Y-115018130D01*
X145850648Y-115127540D01*
X146442037Y-115342288D01*
X146871210Y-115457585D01*
X147432151Y-115472439D01*
X147481945Y-115466323D01*
X147928137Y-115332818D01*
X148165105Y-115125928D01*
X148101538Y-114920889D01*
X147904463Y-114856361D01*
X147365572Y-114806826D01*
X146783843Y-114820562D01*
X146434112Y-114900868D01*
X146386150Y-114914960D01*
X146250688Y-114843247D01*
X146103565Y-114662743D01*
X146066914Y-114608884D01*
X145877666Y-114451077D01*
X146510022Y-114451077D01*
X146557272Y-114510788D01*
X146845161Y-114545334D01*
X147216653Y-114466872D01*
X147265935Y-114371668D01*
X146956874Y-114325400D01*
X146737254Y-114341734D01*
X146510022Y-114451077D01*
X145877666Y-114451077D01*
X145816995Y-114400486D01*
X145497437Y-114325400D01*
X145387483Y-114330052D01*
X145135685Y-114416630D01*
X145154646Y-114565380D01*
X145451688Y-114714104D01*
X145507855Y-114730917D01*
X145615848Y-114793430D01*
X145240022Y-114788796D01*
X144911483Y-114748713D01*
X144695383Y-114629698D01*
X144590909Y-114393520D01*
X144506241Y-114026505D01*
X145819536Y-114068138D01*
X146233607Y-114078643D01*
X146956874Y-114068935D01*
X146999892Y-114068358D01*
X147381549Y-113999304D01*
G37*
X147381549Y-113999304D02*
X147439834Y-113976871D01*
X147585855Y-113986929D01*
X147634589Y-114147093D01*
X147642688Y-114192163D01*
X147839542Y-114446740D01*
X148216064Y-114702718D01*
X148604082Y-115004226D01*
X148560997Y-115330790D01*
X148003908Y-115613529D01*
X147904772Y-115641835D01*
X147224158Y-115733809D01*
X146544820Y-115682586D01*
X146003377Y-115496181D01*
X145723694Y-115366060D01*
X145390120Y-115284986D01*
X145194108Y-115309094D01*
X145250619Y-115446041D01*
X145311757Y-115565750D01*
X145057971Y-115578826D01*
X144832468Y-115532496D01*
X144616597Y-115377683D01*
X144639012Y-115191822D01*
X144919079Y-115048812D01*
X145002745Y-115029590D01*
X145242226Y-114992624D01*
X145487785Y-115018130D01*
X145850648Y-115127540D01*
X146442037Y-115342288D01*
X146871210Y-115457585D01*
X147432151Y-115472439D01*
X147481945Y-115466323D01*
X147928137Y-115332818D01*
X148165105Y-115125928D01*
X148101538Y-114920889D01*
X147904463Y-114856361D01*
X147365572Y-114806826D01*
X146783843Y-114820562D01*
X146434112Y-114900868D01*
X146386150Y-114914960D01*
X146250688Y-114843247D01*
X146103565Y-114662743D01*
X146066914Y-114608884D01*
X145877666Y-114451077D01*
X146510022Y-114451077D01*
X146557272Y-114510788D01*
X146845161Y-114545334D01*
X147216653Y-114466872D01*
X147265935Y-114371668D01*
X146956874Y-114325400D01*
X146737254Y-114341734D01*
X146510022Y-114451077D01*
X145877666Y-114451077D01*
X145816995Y-114400486D01*
X145497437Y-114325400D01*
X145387483Y-114330052D01*
X145135685Y-114416630D01*
X145154646Y-114565380D01*
X145451688Y-114714104D01*
X145507855Y-114730917D01*
X145615848Y-114793430D01*
X145240022Y-114788796D01*
X144911483Y-114748713D01*
X144695383Y-114629698D01*
X144590909Y-114393520D01*
X144506241Y-114026505D01*
X145819536Y-114068138D01*
X146233607Y-114078643D01*
X146956874Y-114068935D01*
X146999892Y-114068358D01*
X147381549Y-113999304D01*
G36*
X147245462Y-106663920D02*
G01*
X147579361Y-106740479D01*
X147850147Y-106889951D01*
X147921133Y-107134539D01*
X147920238Y-107185911D01*
X147863227Y-107381777D01*
X147651452Y-107476906D01*
X147193333Y-107519773D01*
X146578912Y-107511066D01*
X146260739Y-107399185D01*
X146382392Y-107201493D01*
X146457298Y-107154172D01*
X146601080Y-107104175D01*
X146715503Y-107201493D01*
X146843264Y-107289237D01*
X147153729Y-107335103D01*
X147436145Y-107241181D01*
X147437205Y-107240345D01*
X147417754Y-107058048D01*
X146964906Y-106919299D01*
X146209012Y-106864150D01*
X146110939Y-106864774D01*
X145398495Y-106927870D01*
X145128130Y-107075170D01*
X145356147Y-107279268D01*
X145558724Y-107401413D01*
X145465737Y-107488975D01*
X144969971Y-107471759D01*
X144726059Y-107403852D01*
X144552042Y-107223654D01*
X144574972Y-106998208D01*
X144809244Y-106788687D01*
X144904421Y-106746870D01*
X145554967Y-106615809D01*
X146409225Y-106584374D01*
X147245462Y-106663920D01*
G37*
X147245462Y-106663920D02*
X147579361Y-106740479D01*
X147850147Y-106889951D01*
X147921133Y-107134539D01*
X147920238Y-107185911D01*
X147863227Y-107381777D01*
X147651452Y-107476906D01*
X147193333Y-107519773D01*
X146578912Y-107511066D01*
X146260739Y-107399185D01*
X146382392Y-107201493D01*
X146457298Y-107154172D01*
X146601080Y-107104175D01*
X146715503Y-107201493D01*
X146843264Y-107289237D01*
X147153729Y-107335103D01*
X147436145Y-107241181D01*
X147437205Y-107240345D01*
X147417754Y-107058048D01*
X146964906Y-106919299D01*
X146209012Y-106864150D01*
X146110939Y-106864774D01*
X145398495Y-106927870D01*
X145128130Y-107075170D01*
X145356147Y-107279268D01*
X145558724Y-107401413D01*
X145465737Y-107488975D01*
X144969971Y-107471759D01*
X144726059Y-107403852D01*
X144552042Y-107223654D01*
X144574972Y-106998208D01*
X144809244Y-106788687D01*
X144904421Y-106746870D01*
X145554967Y-106615809D01*
X146409225Y-106584374D01*
X147245462Y-106663920D01*
G36*
X151574240Y-124648145D02*
G01*
X151482127Y-124776296D01*
X151438429Y-124837092D01*
X151391997Y-124901691D01*
X151335870Y-124977542D01*
X151223708Y-125129120D01*
X151196802Y-125165482D01*
X151165497Y-125206605D01*
X151033135Y-125380485D01*
X150994493Y-125431248D01*
X150878128Y-125579554D01*
X150847306Y-125618837D01*
X150790905Y-125690720D01*
X150754220Y-125735862D01*
X150643074Y-125872631D01*
X150591877Y-125935631D01*
X150559574Y-125973922D01*
X150526403Y-126013243D01*
X150495909Y-126048136D01*
X150388073Y-126171533D01*
X150230778Y-126346046D01*
X150063406Y-126527477D01*
X149894849Y-126706524D01*
X149733993Y-126873880D01*
X149589730Y-127020243D01*
X149470948Y-127136307D01*
X149386536Y-127212768D01*
X149345383Y-127240323D01*
X149337411Y-127237646D01*
X149282649Y-127195623D01*
X149195258Y-127113190D01*
X149090070Y-127004070D01*
X149078415Y-126991601D01*
X148946077Y-126862175D01*
X148807761Y-126744312D01*
X148691594Y-126662147D01*
X148616683Y-126620717D01*
X148532379Y-126586455D01*
X148436452Y-126567064D01*
X148306739Y-126558440D01*
X148121077Y-126556477D01*
X147949043Y-126557997D01*
X147814975Y-126565915D01*
X147714041Y-126584800D01*
X147622765Y-126619210D01*
X147517675Y-126673708D01*
X147421294Y-126733180D01*
X147261504Y-126850689D01*
X147165907Y-126934760D01*
X147123472Y-126972079D01*
X147088863Y-127011189D01*
X146976119Y-127138597D01*
X146779168Y-127445452D01*
X146661574Y-127728785D01*
X146638607Y-127784124D01*
X146558618Y-128139757D01*
X146543380Y-128497493D01*
X146566666Y-128647092D01*
X146597077Y-128842477D01*
X146614176Y-128906636D01*
X146644215Y-129041491D01*
X146642580Y-129133439D01*
X146599792Y-129202102D01*
X146506374Y-129267099D01*
X146352846Y-129348051D01*
X146157029Y-129442058D01*
X146019404Y-129493321D01*
X145939229Y-129501432D01*
X145913231Y-129467280D01*
X145898208Y-129438776D01*
X145838822Y-129362050D01*
X145744784Y-129253084D01*
X145627361Y-129125356D01*
X145544328Y-129036210D01*
X145420857Y-128898945D01*
X145319480Y-128780697D01*
X145256363Y-128700002D01*
X145226489Y-128647092D01*
X145405231Y-128647092D01*
X145406366Y-128656433D01*
X145444308Y-128686169D01*
X145453648Y-128685034D01*
X145483384Y-128647092D01*
X145482249Y-128637752D01*
X145444308Y-128608016D01*
X145434967Y-128609151D01*
X145405231Y-128647092D01*
X145226489Y-128647092D01*
X145189315Y-128581252D01*
X145108473Y-128337032D01*
X145066132Y-128042318D01*
X145064729Y-127728785D01*
X145209846Y-127728785D01*
X145229384Y-127748323D01*
X145248923Y-127728785D01*
X145229384Y-127709246D01*
X145209846Y-127728785D01*
X145064729Y-127728785D01*
X145064642Y-127709246D01*
X145070182Y-127628405D01*
X145083475Y-127499564D01*
X145333989Y-127499564D01*
X145366154Y-127513862D01*
X145386841Y-127511042D01*
X145392205Y-127487810D01*
X145386478Y-127483134D01*
X145340102Y-127487810D01*
X145333989Y-127499564D01*
X145083475Y-127499564D01*
X145090425Y-127432202D01*
X145483384Y-127432202D01*
X145489285Y-127479183D01*
X145498287Y-127487810D01*
X145529062Y-127517307D01*
X145600915Y-127494066D01*
X145698473Y-127412466D01*
X145815368Y-127275512D01*
X145823326Y-127265002D01*
X145913656Y-127136599D01*
X145961523Y-127050212D01*
X145966123Y-127011189D01*
X145926651Y-127024880D01*
X145842300Y-127096634D01*
X145822888Y-127114719D01*
X145746009Y-127176811D01*
X145696169Y-127202546D01*
X145661735Y-127211460D01*
X145581487Y-127268461D01*
X145512619Y-127352206D01*
X145483384Y-127432202D01*
X145090425Y-127432202D01*
X145090705Y-127429489D01*
X145119170Y-127232863D01*
X145152556Y-127053634D01*
X145173444Y-126966785D01*
X145717846Y-126966785D01*
X145719074Y-126990758D01*
X145737199Y-127000906D01*
X145796000Y-126966785D01*
X145803485Y-126961889D01*
X145831482Y-126934760D01*
X145786231Y-126928306D01*
X145750066Y-126933941D01*
X145717846Y-126966785D01*
X145173444Y-126966785D01*
X145187845Y-126906909D01*
X145222017Y-126807795D01*
X145252055Y-126771400D01*
X145275054Y-126749862D01*
X145288000Y-126678958D01*
X145288696Y-126668362D01*
X145311943Y-126579619D01*
X145361513Y-126450804D01*
X145428371Y-126305931D01*
X145474353Y-126216675D01*
X145537697Y-126109939D01*
X145583178Y-126062544D01*
X145617581Y-126065881D01*
X145669359Y-126089400D01*
X145674345Y-126083955D01*
X147987222Y-126083955D01*
X148015399Y-126081877D01*
X148037876Y-126069129D01*
X149496102Y-126069129D01*
X149497789Y-126109509D01*
X149560528Y-126157924D01*
X149618263Y-126192146D01*
X149660177Y-126190305D01*
X149694559Y-126131070D01*
X149699918Y-126118879D01*
X149711927Y-126048136D01*
X149664690Y-125998977D01*
X149659787Y-125995977D01*
X149594027Y-125978790D01*
X149530658Y-126025831D01*
X149496102Y-126069129D01*
X148037876Y-126069129D01*
X148079209Y-126045686D01*
X148123742Y-126006250D01*
X148137701Y-125973922D01*
X148109523Y-125976000D01*
X148045714Y-126012191D01*
X148001181Y-126051628D01*
X147987222Y-126083955D01*
X145674345Y-126083955D01*
X145700522Y-126055371D01*
X145693840Y-125966435D01*
X145693088Y-125963128D01*
X145709849Y-125867483D01*
X145718520Y-125852307D01*
X146156041Y-125852307D01*
X146160718Y-125898682D01*
X146172471Y-125904796D01*
X146186769Y-125872631D01*
X146183949Y-125851944D01*
X146160718Y-125846580D01*
X146156041Y-125852307D01*
X145718520Y-125852307D01*
X145789404Y-125728251D01*
X145829963Y-125676163D01*
X148185506Y-125676163D01*
X148215260Y-125731633D01*
X148264111Y-125779171D01*
X148317346Y-125783592D01*
X148343785Y-125735862D01*
X150446154Y-125735862D01*
X150465692Y-125755400D01*
X150485231Y-125735862D01*
X150465692Y-125716323D01*
X150446154Y-125735862D01*
X148343785Y-125735862D01*
X148356787Y-125712390D01*
X148359033Y-125704945D01*
X148361243Y-125618837D01*
X148315910Y-125584584D01*
X148237682Y-125614256D01*
X148218189Y-125629195D01*
X148185506Y-125676163D01*
X145829963Y-125676163D01*
X145905190Y-125579554D01*
X145952308Y-125579554D01*
X145971846Y-125599092D01*
X145991384Y-125579554D01*
X145971846Y-125560016D01*
X145952308Y-125579554D01*
X145905190Y-125579554D01*
X145930703Y-125546789D01*
X146038181Y-125428487D01*
X147678604Y-125428487D01*
X147710769Y-125442785D01*
X147731456Y-125439965D01*
X147734769Y-125425617D01*
X148538879Y-125425617D01*
X148547186Y-125438854D01*
X148609538Y-125403708D01*
X148637023Y-125380485D01*
X148621614Y-125365229D01*
X148607992Y-125366555D01*
X148550923Y-125403708D01*
X148543762Y-125416733D01*
X148538879Y-125425617D01*
X147734769Y-125425617D01*
X147736820Y-125416733D01*
X147731093Y-125412057D01*
X147684718Y-125416733D01*
X147678604Y-125428487D01*
X146038181Y-125428487D01*
X146132694Y-125324455D01*
X146235326Y-125221736D01*
X149993756Y-125221736D01*
X150010203Y-125263165D01*
X150027368Y-125269327D01*
X150076136Y-125245438D01*
X150088891Y-125206605D01*
X150064787Y-125174366D01*
X150012251Y-125196749D01*
X149993756Y-125221736D01*
X146235326Y-125221736D01*
X146283657Y-125173364D01*
X148734184Y-125173364D01*
X148760653Y-125212221D01*
X148825644Y-125217328D01*
X148902152Y-125184291D01*
X148909813Y-125178578D01*
X148952071Y-125129120D01*
X148928747Y-125082055D01*
X148864470Y-125060816D01*
X148788509Y-125089821D01*
X148737213Y-125157454D01*
X148734184Y-125173364D01*
X146283657Y-125173364D01*
X146394324Y-125062604D01*
X146433078Y-125026773D01*
X150543968Y-125026773D01*
X150561763Y-125070552D01*
X150587602Y-125074383D01*
X150627103Y-125033269D01*
X150639643Y-124977542D01*
X150618742Y-124950338D01*
X150567055Y-124988977D01*
X150543968Y-125026773D01*
X146433078Y-125026773D01*
X146561573Y-124907968D01*
X146650779Y-124837092D01*
X150641538Y-124837092D01*
X150661077Y-124856631D01*
X150680615Y-124837092D01*
X150661077Y-124817554D01*
X150641538Y-124837092D01*
X146650779Y-124837092D01*
X146749145Y-124758939D01*
X147437231Y-124758939D01*
X147438365Y-124774511D01*
X147470623Y-124816337D01*
X147527348Y-124792565D01*
X147537249Y-124776296D01*
X147525029Y-124726179D01*
X147474001Y-124700323D01*
X147457108Y-124706918D01*
X147437231Y-124758939D01*
X146749145Y-124758939D01*
X146871625Y-124661627D01*
X150145732Y-124661627D01*
X150178350Y-124704694D01*
X150238178Y-124731180D01*
X150327155Y-124730895D01*
X150382131Y-124680785D01*
X150394020Y-124628290D01*
X150372367Y-124549966D01*
X150367356Y-124546669D01*
X150934250Y-124546669D01*
X150951429Y-124586215D01*
X151008659Y-124595689D01*
X151078686Y-124567670D01*
X151084072Y-124563659D01*
X151120151Y-124515924D01*
X151091962Y-124454353D01*
X151086929Y-124447653D01*
X151044179Y-124414222D01*
X151000140Y-124439398D01*
X150940924Y-124530152D01*
X150934250Y-124546669D01*
X150367356Y-124546669D01*
X150312001Y-124510247D01*
X150236628Y-124519492D01*
X150169956Y-124588062D01*
X150168535Y-124590733D01*
X150145732Y-124661627D01*
X146871625Y-124661627D01*
X147022634Y-124541648D01*
X147368322Y-124321356D01*
X147952950Y-124321356D01*
X147979068Y-124392060D01*
X148035714Y-124405107D01*
X148118647Y-124345669D01*
X148139544Y-124321959D01*
X148158310Y-124270477D01*
X151305846Y-124270477D01*
X151306294Y-124279320D01*
X151323078Y-124309554D01*
X151329347Y-124307756D01*
X151364461Y-124270477D01*
X151370567Y-124255340D01*
X151347229Y-124231400D01*
X151335887Y-124232902D01*
X151319897Y-124252902D01*
X151305846Y-124270477D01*
X148158310Y-124270477D01*
X148164717Y-124252902D01*
X148125121Y-124213669D01*
X148030429Y-124218235D01*
X147970122Y-124249251D01*
X147952950Y-124321356D01*
X147368322Y-124321356D01*
X147517915Y-124226027D01*
X148032416Y-123970009D01*
X148551138Y-123782496D01*
X148803592Y-123710780D01*
X149023870Y-123654245D01*
X149221845Y-123612906D01*
X149417607Y-123583795D01*
X149631247Y-123563947D01*
X149882858Y-123550396D01*
X150192530Y-123540175D01*
X150228834Y-123539178D01*
X150494879Y-123532709D01*
X150702834Y-123530471D01*
X150870583Y-123533584D01*
X151016009Y-123543171D01*
X151156996Y-123560351D01*
X151311426Y-123586248D01*
X151497182Y-123621981D01*
X151617240Y-123645821D01*
X151807831Y-123684801D01*
X151938509Y-123714638D01*
X152020539Y-123739055D01*
X152065185Y-123761772D01*
X152083712Y-123786513D01*
X152087385Y-123816999D01*
X152086889Y-123823494D01*
X152056957Y-123901784D01*
X151984890Y-124031663D01*
X151876523Y-124204863D01*
X151842872Y-124255340D01*
X151737694Y-124413113D01*
X151666193Y-124515924D01*
X151588048Y-124628290D01*
X151574240Y-124648145D01*
G37*
X151574240Y-124648145D02*
X151482127Y-124776296D01*
X151438429Y-124837092D01*
X151391997Y-124901691D01*
X151335870Y-124977542D01*
X151223708Y-125129120D01*
X151196802Y-125165482D01*
X151165497Y-125206605D01*
X151033135Y-125380485D01*
X150994493Y-125431248D01*
X150878128Y-125579554D01*
X150847306Y-125618837D01*
X150790905Y-125690720D01*
X150754220Y-125735862D01*
X150643074Y-125872631D01*
X150591877Y-125935631D01*
X150559574Y-125973922D01*
X150526403Y-126013243D01*
X150495909Y-126048136D01*
X150388073Y-126171533D01*
X150230778Y-126346046D01*
X150063406Y-126527477D01*
X149894849Y-126706524D01*
X149733993Y-126873880D01*
X149589730Y-127020243D01*
X149470948Y-127136307D01*
X149386536Y-127212768D01*
X149345383Y-127240323D01*
X149337411Y-127237646D01*
X149282649Y-127195623D01*
X149195258Y-127113190D01*
X149090070Y-127004070D01*
X149078415Y-126991601D01*
X148946077Y-126862175D01*
X148807761Y-126744312D01*
X148691594Y-126662147D01*
X148616683Y-126620717D01*
X148532379Y-126586455D01*
X148436452Y-126567064D01*
X148306739Y-126558440D01*
X148121077Y-126556477D01*
X147949043Y-126557997D01*
X147814975Y-126565915D01*
X147714041Y-126584800D01*
X147622765Y-126619210D01*
X147517675Y-126673708D01*
X147421294Y-126733180D01*
X147261504Y-126850689D01*
X147165907Y-126934760D01*
X147123472Y-126972079D01*
X147088863Y-127011189D01*
X146976119Y-127138597D01*
X146779168Y-127445452D01*
X146661574Y-127728785D01*
X146638607Y-127784124D01*
X146558618Y-128139757D01*
X146543380Y-128497493D01*
X146566666Y-128647092D01*
X146597077Y-128842477D01*
X146614176Y-128906636D01*
X146644215Y-129041491D01*
X146642580Y-129133439D01*
X146599792Y-129202102D01*
X146506374Y-129267099D01*
X146352846Y-129348051D01*
X146157029Y-129442058D01*
X146019404Y-129493321D01*
X145939229Y-129501432D01*
X145913231Y-129467280D01*
X145898208Y-129438776D01*
X145838822Y-129362050D01*
X145744784Y-129253084D01*
X145627361Y-129125356D01*
X145544328Y-129036210D01*
X145420857Y-128898945D01*
X145319480Y-128780697D01*
X145256363Y-128700002D01*
X145226489Y-128647092D01*
X145405231Y-128647092D01*
X145406366Y-128656433D01*
X145444308Y-128686169D01*
X145453648Y-128685034D01*
X145483384Y-128647092D01*
X145482249Y-128637752D01*
X145444308Y-128608016D01*
X145434967Y-128609151D01*
X145405231Y-128647092D01*
X145226489Y-128647092D01*
X145189315Y-128581252D01*
X145108473Y-128337032D01*
X145066132Y-128042318D01*
X145064729Y-127728785D01*
X145209846Y-127728785D01*
X145229384Y-127748323D01*
X145248923Y-127728785D01*
X145229384Y-127709246D01*
X145209846Y-127728785D01*
X145064729Y-127728785D01*
X145064642Y-127709246D01*
X145070182Y-127628405D01*
X145083475Y-127499564D01*
X145333989Y-127499564D01*
X145366154Y-127513862D01*
X145386841Y-127511042D01*
X145392205Y-127487810D01*
X145386478Y-127483134D01*
X145340102Y-127487810D01*
X145333989Y-127499564D01*
X145083475Y-127499564D01*
X145090425Y-127432202D01*
X145483384Y-127432202D01*
X145489285Y-127479183D01*
X145498287Y-127487810D01*
X145529062Y-127517307D01*
X145600915Y-127494066D01*
X145698473Y-127412466D01*
X145815368Y-127275512D01*
X145823326Y-127265002D01*
X145913656Y-127136599D01*
X145961523Y-127050212D01*
X145966123Y-127011189D01*
X145926651Y-127024880D01*
X145842300Y-127096634D01*
X145822888Y-127114719D01*
X145746009Y-127176811D01*
X145696169Y-127202546D01*
X145661735Y-127211460D01*
X145581487Y-127268461D01*
X145512619Y-127352206D01*
X145483384Y-127432202D01*
X145090425Y-127432202D01*
X145090705Y-127429489D01*
X145119170Y-127232863D01*
X145152556Y-127053634D01*
X145173444Y-126966785D01*
X145717846Y-126966785D01*
X145719074Y-126990758D01*
X145737199Y-127000906D01*
X145796000Y-126966785D01*
X145803485Y-126961889D01*
X145831482Y-126934760D01*
X145786231Y-126928306D01*
X145750066Y-126933941D01*
X145717846Y-126966785D01*
X145173444Y-126966785D01*
X145187845Y-126906909D01*
X145222017Y-126807795D01*
X145252055Y-126771400D01*
X145275054Y-126749862D01*
X145288000Y-126678958D01*
X145288696Y-126668362D01*
X145311943Y-126579619D01*
X145361513Y-126450804D01*
X145428371Y-126305931D01*
X145474353Y-126216675D01*
X145537697Y-126109939D01*
X145583178Y-126062544D01*
X145617581Y-126065881D01*
X145669359Y-126089400D01*
X145674345Y-126083955D01*
X147987222Y-126083955D01*
X148015399Y-126081877D01*
X148037876Y-126069129D01*
X149496102Y-126069129D01*
X149497789Y-126109509D01*
X149560528Y-126157924D01*
X149618263Y-126192146D01*
X149660177Y-126190305D01*
X149694559Y-126131070D01*
X149699918Y-126118879D01*
X149711927Y-126048136D01*
X149664690Y-125998977D01*
X149659787Y-125995977D01*
X149594027Y-125978790D01*
X149530658Y-126025831D01*
X149496102Y-126069129D01*
X148037876Y-126069129D01*
X148079209Y-126045686D01*
X148123742Y-126006250D01*
X148137701Y-125973922D01*
X148109523Y-125976000D01*
X148045714Y-126012191D01*
X148001181Y-126051628D01*
X147987222Y-126083955D01*
X145674345Y-126083955D01*
X145700522Y-126055371D01*
X145693840Y-125966435D01*
X145693088Y-125963128D01*
X145709849Y-125867483D01*
X145718520Y-125852307D01*
X146156041Y-125852307D01*
X146160718Y-125898682D01*
X146172471Y-125904796D01*
X146186769Y-125872631D01*
X146183949Y-125851944D01*
X146160718Y-125846580D01*
X146156041Y-125852307D01*
X145718520Y-125852307D01*
X145789404Y-125728251D01*
X145829963Y-125676163D01*
X148185506Y-125676163D01*
X148215260Y-125731633D01*
X148264111Y-125779171D01*
X148317346Y-125783592D01*
X148343785Y-125735862D01*
X150446154Y-125735862D01*
X150465692Y-125755400D01*
X150485231Y-125735862D01*
X150465692Y-125716323D01*
X150446154Y-125735862D01*
X148343785Y-125735862D01*
X148356787Y-125712390D01*
X148359033Y-125704945D01*
X148361243Y-125618837D01*
X148315910Y-125584584D01*
X148237682Y-125614256D01*
X148218189Y-125629195D01*
X148185506Y-125676163D01*
X145829963Y-125676163D01*
X145905190Y-125579554D01*
X145952308Y-125579554D01*
X145971846Y-125599092D01*
X145991384Y-125579554D01*
X145971846Y-125560016D01*
X145952308Y-125579554D01*
X145905190Y-125579554D01*
X145930703Y-125546789D01*
X146038181Y-125428487D01*
X147678604Y-125428487D01*
X147710769Y-125442785D01*
X147731456Y-125439965D01*
X147734769Y-125425617D01*
X148538879Y-125425617D01*
X148547186Y-125438854D01*
X148609538Y-125403708D01*
X148637023Y-125380485D01*
X148621614Y-125365229D01*
X148607992Y-125366555D01*
X148550923Y-125403708D01*
X148543762Y-125416733D01*
X148538879Y-125425617D01*
X147734769Y-125425617D01*
X147736820Y-125416733D01*
X147731093Y-125412057D01*
X147684718Y-125416733D01*
X147678604Y-125428487D01*
X146038181Y-125428487D01*
X146132694Y-125324455D01*
X146235326Y-125221736D01*
X149993756Y-125221736D01*
X150010203Y-125263165D01*
X150027368Y-125269327D01*
X150076136Y-125245438D01*
X150088891Y-125206605D01*
X150064787Y-125174366D01*
X150012251Y-125196749D01*
X149993756Y-125221736D01*
X146235326Y-125221736D01*
X146283657Y-125173364D01*
X148734184Y-125173364D01*
X148760653Y-125212221D01*
X148825644Y-125217328D01*
X148902152Y-125184291D01*
X148909813Y-125178578D01*
X148952071Y-125129120D01*
X148928747Y-125082055D01*
X148864470Y-125060816D01*
X148788509Y-125089821D01*
X148737213Y-125157454D01*
X148734184Y-125173364D01*
X146283657Y-125173364D01*
X146394324Y-125062604D01*
X146433078Y-125026773D01*
X150543968Y-125026773D01*
X150561763Y-125070552D01*
X150587602Y-125074383D01*
X150627103Y-125033269D01*
X150639643Y-124977542D01*
X150618742Y-124950338D01*
X150567055Y-124988977D01*
X150543968Y-125026773D01*
X146433078Y-125026773D01*
X146561573Y-124907968D01*
X146650779Y-124837092D01*
X150641538Y-124837092D01*
X150661077Y-124856631D01*
X150680615Y-124837092D01*
X150661077Y-124817554D01*
X150641538Y-124837092D01*
X146650779Y-124837092D01*
X146749145Y-124758939D01*
X147437231Y-124758939D01*
X147438365Y-124774511D01*
X147470623Y-124816337D01*
X147527348Y-124792565D01*
X147537249Y-124776296D01*
X147525029Y-124726179D01*
X147474001Y-124700323D01*
X147457108Y-124706918D01*
X147437231Y-124758939D01*
X146749145Y-124758939D01*
X146871625Y-124661627D01*
X150145732Y-124661627D01*
X150178350Y-124704694D01*
X150238178Y-124731180D01*
X150327155Y-124730895D01*
X150382131Y-124680785D01*
X150394020Y-124628290D01*
X150372367Y-124549966D01*
X150367356Y-124546669D01*
X150934250Y-124546669D01*
X150951429Y-124586215D01*
X151008659Y-124595689D01*
X151078686Y-124567670D01*
X151084072Y-124563659D01*
X151120151Y-124515924D01*
X151091962Y-124454353D01*
X151086929Y-124447653D01*
X151044179Y-124414222D01*
X151000140Y-124439398D01*
X150940924Y-124530152D01*
X150934250Y-124546669D01*
X150367356Y-124546669D01*
X150312001Y-124510247D01*
X150236628Y-124519492D01*
X150169956Y-124588062D01*
X150168535Y-124590733D01*
X150145732Y-124661627D01*
X146871625Y-124661627D01*
X147022634Y-124541648D01*
X147368322Y-124321356D01*
X147952950Y-124321356D01*
X147979068Y-124392060D01*
X148035714Y-124405107D01*
X148118647Y-124345669D01*
X148139544Y-124321959D01*
X148158310Y-124270477D01*
X151305846Y-124270477D01*
X151306294Y-124279320D01*
X151323078Y-124309554D01*
X151329347Y-124307756D01*
X151364461Y-124270477D01*
X151370567Y-124255340D01*
X151347229Y-124231400D01*
X151335887Y-124232902D01*
X151319897Y-124252902D01*
X151305846Y-124270477D01*
X148158310Y-124270477D01*
X148164717Y-124252902D01*
X148125121Y-124213669D01*
X148030429Y-124218235D01*
X147970122Y-124249251D01*
X147952950Y-124321356D01*
X147368322Y-124321356D01*
X147517915Y-124226027D01*
X148032416Y-123970009D01*
X148551138Y-123782496D01*
X148803592Y-123710780D01*
X149023870Y-123654245D01*
X149221845Y-123612906D01*
X149417607Y-123583795D01*
X149631247Y-123563947D01*
X149882858Y-123550396D01*
X150192530Y-123540175D01*
X150228834Y-123539178D01*
X150494879Y-123532709D01*
X150702834Y-123530471D01*
X150870583Y-123533584D01*
X151016009Y-123543171D01*
X151156996Y-123560351D01*
X151311426Y-123586248D01*
X151497182Y-123621981D01*
X151617240Y-123645821D01*
X151807831Y-123684801D01*
X151938509Y-123714638D01*
X152020539Y-123739055D01*
X152065185Y-123761772D01*
X152083712Y-123786513D01*
X152087385Y-123816999D01*
X152086889Y-123823494D01*
X152056957Y-123901784D01*
X151984890Y-124031663D01*
X151876523Y-124204863D01*
X151842872Y-124255340D01*
X151737694Y-124413113D01*
X151666193Y-124515924D01*
X151588048Y-124628290D01*
X151574240Y-124648145D01*
G36*
X153685909Y-128410176D02*
G01*
X153667743Y-128440800D01*
X153614975Y-128454955D01*
X153513101Y-128457337D01*
X153347615Y-128452644D01*
X153103384Y-128444591D01*
X153103384Y-128656560D01*
X153101317Y-128741165D01*
X153091860Y-128843795D01*
X153077333Y-128894580D01*
X153061106Y-128908171D01*
X153026922Y-128915674D01*
X152974274Y-128895425D01*
X152888735Y-128840703D01*
X152755881Y-128744785D01*
X152733460Y-128728342D01*
X152620353Y-128647423D01*
X152536117Y-128590469D01*
X152497582Y-128568939D01*
X152495910Y-128569416D01*
X152483315Y-128610588D01*
X152478154Y-128697892D01*
X152478141Y-128700950D01*
X152464292Y-128803828D01*
X152432191Y-128872809D01*
X152382750Y-128900246D01*
X152331100Y-128871265D01*
X152295826Y-128780892D01*
X152282769Y-128638297D01*
X152282769Y-128443686D01*
X152023507Y-128457466D01*
X151951707Y-128460618D01*
X151831440Y-128458872D01*
X151761497Y-128441791D01*
X151722927Y-128406137D01*
X151702698Y-128355381D01*
X151704602Y-128350457D01*
X152547519Y-128350457D01*
X152659375Y-128442091D01*
X152768484Y-128529180D01*
X152847337Y-128577349D01*
X152888956Y-128566891D01*
X152905218Y-128493553D01*
X152908000Y-128353084D01*
X152907415Y-128238022D01*
X152897778Y-128151850D01*
X152865549Y-128129429D01*
X152797129Y-128164742D01*
X152678913Y-128251775D01*
X152547519Y-128350457D01*
X151704602Y-128350457D01*
X151731497Y-128280916D01*
X151740623Y-128271065D01*
X151793058Y-128243086D01*
X151882964Y-128234878D01*
X152029964Y-128244017D01*
X152278544Y-128267230D01*
X152290426Y-128037084D01*
X152296083Y-127949124D01*
X152309994Y-127858259D01*
X152335798Y-127816800D01*
X152380461Y-127806939D01*
X152425084Y-127816827D01*
X152458326Y-127866445D01*
X152478154Y-127975188D01*
X152497692Y-128143438D01*
X152742228Y-127961355D01*
X152768288Y-127942096D01*
X152911448Y-127845647D01*
X153008091Y-127805706D01*
X153066663Y-127824213D01*
X153095612Y-127903110D01*
X153103384Y-128044336D01*
X153103384Y-128264647D01*
X153670000Y-128236785D01*
X153682365Y-128344246D01*
X153683376Y-128353084D01*
X153683981Y-128358385D01*
X153685909Y-128410176D01*
G37*
X153685909Y-128410176D02*
X153667743Y-128440800D01*
X153614975Y-128454955D01*
X153513101Y-128457337D01*
X153347615Y-128452644D01*
X153103384Y-128444591D01*
X153103384Y-128656560D01*
X153101317Y-128741165D01*
X153091860Y-128843795D01*
X153077333Y-128894580D01*
X153061106Y-128908171D01*
X153026922Y-128915674D01*
X152974274Y-128895425D01*
X152888735Y-128840703D01*
X152755881Y-128744785D01*
X152733460Y-128728342D01*
X152620353Y-128647423D01*
X152536117Y-128590469D01*
X152497582Y-128568939D01*
X152495910Y-128569416D01*
X152483315Y-128610588D01*
X152478154Y-128697892D01*
X152478141Y-128700950D01*
X152464292Y-128803828D01*
X152432191Y-128872809D01*
X152382750Y-128900246D01*
X152331100Y-128871265D01*
X152295826Y-128780892D01*
X152282769Y-128638297D01*
X152282769Y-128443686D01*
X152023507Y-128457466D01*
X151951707Y-128460618D01*
X151831440Y-128458872D01*
X151761497Y-128441791D01*
X151722927Y-128406137D01*
X151702698Y-128355381D01*
X151704602Y-128350457D01*
X152547519Y-128350457D01*
X152659375Y-128442091D01*
X152768484Y-128529180D01*
X152847337Y-128577349D01*
X152888956Y-128566891D01*
X152905218Y-128493553D01*
X152908000Y-128353084D01*
X152907415Y-128238022D01*
X152897778Y-128151850D01*
X152865549Y-128129429D01*
X152797129Y-128164742D01*
X152678913Y-128251775D01*
X152547519Y-128350457D01*
X151704602Y-128350457D01*
X151731497Y-128280916D01*
X151740623Y-128271065D01*
X151793058Y-128243086D01*
X151882964Y-128234878D01*
X152029964Y-128244017D01*
X152278544Y-128267230D01*
X152290426Y-128037084D01*
X152296083Y-127949124D01*
X152309994Y-127858259D01*
X152335798Y-127816800D01*
X152380461Y-127806939D01*
X152425084Y-127816827D01*
X152458326Y-127866445D01*
X152478154Y-127975188D01*
X152497692Y-128143438D01*
X152742228Y-127961355D01*
X152768288Y-127942096D01*
X152911448Y-127845647D01*
X153008091Y-127805706D01*
X153066663Y-127824213D01*
X153095612Y-127903110D01*
X153103384Y-128044336D01*
X153103384Y-128264647D01*
X153670000Y-128236785D01*
X153682365Y-128344246D01*
X153683376Y-128353084D01*
X153683981Y-128358385D01*
X153685909Y-128410176D01*
G36*
X154814372Y-125612940D02*
G01*
X154900560Y-125731894D01*
X155040394Y-125924889D01*
X155146854Y-126107092D01*
X155211435Y-126217622D01*
X155250592Y-126301021D01*
X155256740Y-126315503D01*
X155325540Y-126477566D01*
X155405082Y-126680983D01*
X155474982Y-126875023D01*
X155477470Y-126881930D01*
X155484231Y-126901740D01*
X155539462Y-127068345D01*
X155577320Y-127201499D01*
X155601149Y-127323523D01*
X155612218Y-127435708D01*
X155614292Y-127456736D01*
X155616960Y-127533400D01*
X155620094Y-127623461D01*
X155621897Y-127846016D01*
X155622175Y-127925951D01*
X155621148Y-128092118D01*
X155618946Y-128136548D01*
X155614077Y-128234845D01*
X155597304Y-128355836D01*
X155596402Y-128362343D01*
X155563566Y-128482823D01*
X155511009Y-128604496D01*
X155434172Y-128735573D01*
X155372081Y-128822939D01*
X155328498Y-128884265D01*
X155289137Y-128933657D01*
X155189426Y-129058783D01*
X155040262Y-129234509D01*
X155012397Y-129267337D01*
X154792854Y-129518140D01*
X154526237Y-129819400D01*
X154488074Y-129862710D01*
X154307896Y-130077860D01*
X154276953Y-130114809D01*
X154207300Y-130210169D01*
X154120917Y-130328434D01*
X154112467Y-130340003D01*
X153982720Y-130557909D01*
X153953934Y-130619904D01*
X153875819Y-130788144D01*
X153779868Y-131050323D01*
X153773391Y-131069862D01*
X153773169Y-131070534D01*
X153741726Y-131167554D01*
X153723814Y-131222826D01*
X153717238Y-131245708D01*
X153687798Y-131348160D01*
X153662694Y-131464053D01*
X153646073Y-131588021D01*
X153642650Y-131636477D01*
X153636576Y-131722480D01*
X153635510Y-131737583D01*
X153629833Y-131895324D01*
X153628577Y-131930255D01*
X153622846Y-132183554D01*
X153622742Y-132187955D01*
X153622547Y-132196216D01*
X153618086Y-132385534D01*
X153611641Y-132598108D01*
X153604715Y-132775319D01*
X153597875Y-132902906D01*
X153591689Y-132966609D01*
X153589180Y-132973308D01*
X153538952Y-133027360D01*
X153437683Y-133105987D01*
X153300720Y-133199492D01*
X153143408Y-133298177D01*
X152981095Y-133392344D01*
X152829125Y-133472294D01*
X152702846Y-133528329D01*
X152595384Y-133568850D01*
X152595384Y-133097031D01*
X152594798Y-133007300D01*
X152582645Y-132745565D01*
X152551583Y-132550883D01*
X152497414Y-132415562D01*
X152415939Y-132331909D01*
X152302959Y-132292233D01*
X152154276Y-132288842D01*
X152134017Y-132290422D01*
X152033554Y-132308538D01*
X151971231Y-132355708D01*
X151914806Y-132454196D01*
X151903086Y-132479812D01*
X151875995Y-132559694D01*
X151855516Y-132663347D01*
X151839984Y-132804366D01*
X151827738Y-132996348D01*
X151817113Y-133252887D01*
X151794308Y-133898167D01*
X151657538Y-133933913D01*
X151584205Y-133952274D01*
X151439540Y-133986517D01*
X151286308Y-134021115D01*
X151183303Y-134041194D01*
X151020693Y-134065079D01*
X150889516Y-134075678D01*
X150727187Y-134078785D01*
X150713670Y-133539659D01*
X150707280Y-133338601D01*
X150697030Y-133163055D01*
X150682130Y-133039948D01*
X150660803Y-132955396D01*
X150631275Y-132895511D01*
X150572326Y-132826886D01*
X150449678Y-132761860D01*
X150314485Y-132760848D01*
X150184678Y-132822262D01*
X150078188Y-132944512D01*
X150076856Y-132946803D01*
X150043213Y-133015644D01*
X150020653Y-133095584D01*
X150007026Y-133203374D01*
X150000182Y-133355771D01*
X149997970Y-133569528D01*
X149996769Y-134059246D01*
X149840461Y-134069213D01*
X149788532Y-134068878D01*
X149651060Y-134055277D01*
X149477539Y-134028127D01*
X149293384Y-133991059D01*
X148902615Y-133902939D01*
X148901746Y-133258169D01*
X148900984Y-133082340D01*
X148897432Y-132877553D01*
X148889913Y-132728681D01*
X148877221Y-132622439D01*
X148858149Y-132545547D01*
X148831490Y-132484721D01*
X148805393Y-132450098D01*
X151384000Y-132450098D01*
X151384001Y-132450537D01*
X151406500Y-132476536D01*
X151470635Y-132441315D01*
X151572406Y-132347062D01*
X151610725Y-132305335D01*
X151664901Y-132233917D01*
X151676713Y-132196216D01*
X151672324Y-132194613D01*
X151626303Y-132216612D01*
X151552795Y-132271952D01*
X151473464Y-132341841D01*
X151409977Y-132407487D01*
X151384000Y-132450098D01*
X148805393Y-132450098D01*
X148760703Y-132390809D01*
X148634451Y-132309554D01*
X148492291Y-132284135D01*
X148388757Y-132308950D01*
X148354704Y-132317112D01*
X148242171Y-132411048D01*
X148227166Y-132432393D01*
X148197361Y-132489574D01*
X148176674Y-132564403D01*
X148162829Y-132672008D01*
X148153547Y-132827514D01*
X148146550Y-133046048D01*
X148138487Y-133267496D01*
X148125999Y-133438432D01*
X148109285Y-133538305D01*
X148087935Y-133570779D01*
X148086706Y-133570708D01*
X148033375Y-133550336D01*
X147927902Y-133498891D01*
X147784985Y-133423843D01*
X147619324Y-133332661D01*
X147524294Y-133278583D01*
X147360871Y-133179792D01*
X147250893Y-133101599D01*
X147182595Y-133035054D01*
X147144210Y-132971205D01*
X147143519Y-132969526D01*
X147120771Y-132875539D01*
X147105075Y-132720141D01*
X147096065Y-132497827D01*
X147094157Y-132288573D01*
X147719724Y-132288573D01*
X147728548Y-132307857D01*
X147782049Y-132349033D01*
X147840211Y-132334163D01*
X147859895Y-132308950D01*
X147855962Y-132261074D01*
X147785667Y-132242169D01*
X147738986Y-132251702D01*
X147719724Y-132288573D01*
X147094157Y-132288573D01*
X147093377Y-132203092D01*
X148648615Y-132203092D01*
X148649063Y-132211936D01*
X148665848Y-132242169D01*
X148672116Y-132240371D01*
X148707231Y-132203092D01*
X148713337Y-132187955D01*
X148689998Y-132164016D01*
X148678656Y-132165517D01*
X148648615Y-132203092D01*
X147093377Y-132203092D01*
X147091884Y-132033092D01*
X151465339Y-132033092D01*
X151480085Y-132083262D01*
X151500353Y-132102941D01*
X151571921Y-132123696D01*
X151597692Y-132122279D01*
X151611604Y-132107842D01*
X151562699Y-132065484D01*
X151550295Y-132058188D01*
X151805260Y-132058188D01*
X151847347Y-132107842D01*
X151869611Y-132134109D01*
X151900435Y-132152778D01*
X151938436Y-132155540D01*
X151990309Y-132123048D01*
X152077615Y-132046190D01*
X152163988Y-131959120D01*
X152197308Y-131895324D01*
X152163197Y-131861393D01*
X152061154Y-131851400D01*
X151969994Y-131861464D01*
X151865191Y-131907490D01*
X151830806Y-131949092D01*
X151807033Y-131977856D01*
X151805260Y-132058188D01*
X151550295Y-132058188D01*
X151501785Y-132029655D01*
X151465339Y-132033092D01*
X147091884Y-132033092D01*
X147091306Y-131967287D01*
X147090472Y-131949092D01*
X148609538Y-131949092D01*
X148629077Y-131968631D01*
X148648615Y-131949092D01*
X148629077Y-131929554D01*
X148609538Y-131949092D01*
X147090472Y-131949092D01*
X147075287Y-131617853D01*
X147070447Y-131576884D01*
X147833337Y-131576884D01*
X147842512Y-131631968D01*
X147906154Y-131656016D01*
X147951579Y-131663343D01*
X147984308Y-131695092D01*
X147985443Y-131704433D01*
X148023384Y-131734169D01*
X148040640Y-131733751D01*
X148058631Y-131722480D01*
X148051841Y-131679692D01*
X148037313Y-131636477D01*
X152517231Y-131636477D01*
X152536769Y-131656016D01*
X152556308Y-131636477D01*
X152536769Y-131616939D01*
X152517231Y-131636477D01*
X148037313Y-131636477D01*
X148019759Y-131584258D01*
X147994412Y-131521313D01*
X147957575Y-131485230D01*
X147902528Y-131501648D01*
X147879230Y-131516355D01*
X147833337Y-131576884D01*
X147070447Y-131576884D01*
X147039848Y-131317854D01*
X147023931Y-131245708D01*
X148023384Y-131245708D01*
X148042923Y-131265246D01*
X148062461Y-131245708D01*
X153025231Y-131245708D01*
X153044769Y-131265246D01*
X153064308Y-131245708D01*
X153044769Y-131226169D01*
X153025231Y-131245708D01*
X148062461Y-131245708D01*
X148042923Y-131226169D01*
X148023384Y-131245708D01*
X147023931Y-131245708D01*
X147015818Y-131208937D01*
X151501231Y-131208937D01*
X151502247Y-131212837D01*
X151540308Y-131226169D01*
X151551018Y-131224579D01*
X151579384Y-131184786D01*
X151576316Y-131170652D01*
X151540308Y-131167554D01*
X151528613Y-131175574D01*
X151501231Y-131208937D01*
X147015818Y-131208937D01*
X146997306Y-131125028D01*
X152095087Y-131125028D01*
X152124256Y-131169329D01*
X152187157Y-131180474D01*
X152227544Y-131167554D01*
X152908000Y-131167554D01*
X152927538Y-131187092D01*
X152947077Y-131167554D01*
X152927538Y-131148016D01*
X152908000Y-131167554D01*
X152227544Y-131167554D01*
X152253977Y-131159098D01*
X152294902Y-131105840D01*
X152301196Y-131074616D01*
X152289887Y-131049538D01*
X153072656Y-131049538D01*
X153075186Y-131074616D01*
X153077333Y-131095913D01*
X153089087Y-131102026D01*
X153103384Y-131069862D01*
X153100564Y-131049174D01*
X153077333Y-131043810D01*
X153072656Y-131049538D01*
X152289887Y-131049538D01*
X152284960Y-131038613D01*
X152211662Y-131038253D01*
X152139174Y-131061734D01*
X152096283Y-131110085D01*
X152095087Y-131125028D01*
X146997306Y-131125028D01*
X146980722Y-131049862D01*
X146893642Y-130796446D01*
X146824190Y-130647258D01*
X147856952Y-130647258D01*
X147935962Y-130726269D01*
X147948744Y-130737762D01*
X148048940Y-130795492D01*
X148171142Y-130833837D01*
X148265937Y-130847243D01*
X148311023Y-130837933D01*
X148315107Y-130800051D01*
X148309926Y-130770788D01*
X148299913Y-130689762D01*
X148272040Y-130640020D01*
X148202208Y-130579758D01*
X148147283Y-130549792D01*
X149829416Y-130549792D01*
X149864841Y-130690390D01*
X149934518Y-130800051D01*
X149946034Y-130818177D01*
X150074287Y-130946830D01*
X150195950Y-131027534D01*
X150365766Y-131070613D01*
X150532559Y-131044453D01*
X150681467Y-130952135D01*
X150797631Y-130796745D01*
X150843022Y-130686957D01*
X150869864Y-130522835D01*
X151717132Y-130522835D01*
X151723027Y-130585220D01*
X151726916Y-130593564D01*
X151772503Y-130631929D01*
X151826714Y-130637909D01*
X151852923Y-130605723D01*
X151852425Y-130599571D01*
X151828074Y-130558574D01*
X152712615Y-130558574D01*
X152731974Y-130605723D01*
X152737517Y-130619224D01*
X152810483Y-130673880D01*
X152898231Y-130688175D01*
X152968822Y-130664806D01*
X152976592Y-130619904D01*
X152913651Y-130547437D01*
X152891099Y-130530887D01*
X152813445Y-130506548D01*
X152743199Y-130516373D01*
X152712615Y-130558574D01*
X151828074Y-130558574D01*
X151821872Y-130548133D01*
X151768098Y-130508721D01*
X151725020Y-130507406D01*
X151722010Y-130513293D01*
X151717132Y-130522835D01*
X150869864Y-130522835D01*
X150871425Y-130513293D01*
X150863887Y-130436950D01*
X151931318Y-130436950D01*
X151958856Y-130444631D01*
X151993746Y-130431110D01*
X152053292Y-130376246D01*
X152079385Y-130342038D01*
X152081913Y-130328434D01*
X152028769Y-130365189D01*
X151975046Y-130404390D01*
X151934333Y-130433573D01*
X151931318Y-130436950D01*
X150863887Y-130436950D01*
X150851713Y-130313643D01*
X150817010Y-130189845D01*
X153893272Y-130189845D01*
X153897949Y-130236221D01*
X153909702Y-130242334D01*
X153924000Y-130210169D01*
X153921180Y-130189482D01*
X153897949Y-130184118D01*
X153893272Y-130189845D01*
X150817010Y-130189845D01*
X150789198Y-130090632D01*
X151423077Y-130090632D01*
X151427111Y-130112275D01*
X151466607Y-130151882D01*
X151515319Y-130143979D01*
X151525928Y-130131812D01*
X151535585Y-130077860D01*
X151481692Y-130053862D01*
X151454762Y-130057999D01*
X151423077Y-130090632D01*
X150789198Y-130090632D01*
X150783548Y-130070475D01*
X150681280Y-129793102D01*
X150631146Y-129682631D01*
X151227692Y-129682631D01*
X151247231Y-129702169D01*
X151266769Y-129682631D01*
X151247231Y-129663092D01*
X151227692Y-129682631D01*
X150631146Y-129682631D01*
X150579364Y-129568527D01*
X150483639Y-129416291D01*
X150392381Y-129333691D01*
X150303866Y-129318021D01*
X150298568Y-129319129D01*
X150261056Y-129334852D01*
X150224702Y-129370949D01*
X150183880Y-129438015D01*
X150132963Y-129546646D01*
X150066324Y-129707437D01*
X149978335Y-129930983D01*
X149890699Y-130175454D01*
X149838466Y-130382705D01*
X149834053Y-130464169D01*
X149829416Y-130549792D01*
X148147283Y-130549792D01*
X148134301Y-130542709D01*
X148072242Y-130542394D01*
X147982223Y-130582478D01*
X147856952Y-130647258D01*
X146824190Y-130647258D01*
X146774340Y-130540176D01*
X146731523Y-130464169D01*
X147984308Y-130464169D01*
X148003846Y-130483708D01*
X148023384Y-130464169D01*
X148003846Y-130444631D01*
X147984308Y-130464169D01*
X146731523Y-130464169D01*
X146618550Y-130263623D01*
X146498253Y-130063076D01*
X146796474Y-129921451D01*
X147094696Y-129779827D01*
X147298175Y-129896246D01*
X147309700Y-129902786D01*
X147591316Y-130026820D01*
X147868732Y-130076652D01*
X148153572Y-130054430D01*
X148355341Y-130001882D01*
X148665653Y-129860721D01*
X148932646Y-129656506D01*
X149154445Y-129391682D01*
X149329178Y-129068693D01*
X149454973Y-128689984D01*
X149529956Y-128257998D01*
X149534401Y-128217493D01*
X149553580Y-128093227D01*
X149557883Y-128081918D01*
X151177526Y-128081918D01*
X151183852Y-128424038D01*
X151243660Y-128744785D01*
X151286753Y-128874402D01*
X151421192Y-129161536D01*
X151597308Y-129429196D01*
X151803043Y-129662780D01*
X151827015Y-129682631D01*
X152026337Y-129847689D01*
X152255128Y-129969320D01*
X152572469Y-130054293D01*
X152878536Y-130065308D01*
X153166733Y-130000281D01*
X153436404Y-129859360D01*
X153482602Y-129819400D01*
X154275692Y-129819400D01*
X154282305Y-129837377D01*
X154334308Y-129858477D01*
X154361272Y-129854068D01*
X154392923Y-129819400D01*
X154386310Y-129801424D01*
X154334308Y-129780323D01*
X154307343Y-129784732D01*
X154275692Y-129819400D01*
X153482602Y-129819400D01*
X153686895Y-129642694D01*
X153722034Y-129604797D01*
X153894082Y-129384496D01*
X153951897Y-129272195D01*
X154413919Y-129272195D01*
X154419238Y-129308809D01*
X154450016Y-129274787D01*
X154450190Y-129274510D01*
X154503391Y-129251343D01*
X154594355Y-129253850D01*
X154655175Y-129257740D01*
X154698018Y-129234509D01*
X154678193Y-129188943D01*
X154595549Y-129136057D01*
X154544053Y-129097719D01*
X154507516Y-128999288D01*
X154501990Y-128969902D01*
X154483080Y-128997204D01*
X154477257Y-129016017D01*
X154452356Y-129096477D01*
X154442361Y-129135554D01*
X154434016Y-129168187D01*
X154413919Y-129272195D01*
X153951897Y-129272195D01*
X154014267Y-129151046D01*
X154019013Y-129135554D01*
X154314769Y-129135554D01*
X154334308Y-129155092D01*
X154353846Y-129135554D01*
X154334308Y-129116016D01*
X154314769Y-129135554D01*
X154019013Y-129135554D01*
X154048232Y-129040168D01*
X154314769Y-129040168D01*
X154315888Y-129048892D01*
X154353846Y-129076939D01*
X154372521Y-129069483D01*
X154392923Y-129016017D01*
X154387300Y-128988105D01*
X154353846Y-128979246D01*
X154343174Y-128987245D01*
X154314769Y-129040168D01*
X154048232Y-129040168D01*
X154077259Y-128945410D01*
X154751527Y-128945410D01*
X154783692Y-128959708D01*
X154804379Y-128956888D01*
X154809743Y-128933657D01*
X154804016Y-128928980D01*
X154757641Y-128933657D01*
X154751527Y-128945410D01*
X154077259Y-128945410D01*
X154099435Y-128873015D01*
X154109708Y-128822939D01*
X154510154Y-128822939D01*
X154529692Y-128842477D01*
X154549231Y-128822939D01*
X154529692Y-128803400D01*
X154510154Y-128822939D01*
X154109708Y-128822939D01*
X154124840Y-128749181D01*
X154156274Y-128355836D01*
X154136416Y-128174165D01*
X154480388Y-128174165D01*
X154481543Y-128260741D01*
X154488449Y-128295400D01*
X154511284Y-128264001D01*
X154527293Y-128187994D01*
X154531456Y-128101847D01*
X154524073Y-128063483D01*
X155223119Y-128063483D01*
X155233077Y-128100016D01*
X155234348Y-128101847D01*
X155241105Y-128111583D01*
X155276766Y-128139092D01*
X155282111Y-128136548D01*
X155272154Y-128100016D01*
X155264125Y-128088448D01*
X155228464Y-128060939D01*
X155223119Y-128063483D01*
X154524073Y-128063483D01*
X154519567Y-128040069D01*
X154510754Y-128027995D01*
X154491445Y-128045143D01*
X154481445Y-128139239D01*
X154480388Y-128174165D01*
X154136416Y-128174165D01*
X154114268Y-127971552D01*
X154001360Y-127605529D01*
X153935578Y-127482666D01*
X154122339Y-127482666D01*
X154142554Y-127553274D01*
X154161800Y-127593889D01*
X154186896Y-127609612D01*
X154225007Y-127557124D01*
X154232618Y-127544558D01*
X154242330Y-127513862D01*
X154861846Y-127513862D01*
X154868459Y-127531838D01*
X154920461Y-127552939D01*
X154947426Y-127548530D01*
X154961239Y-127533400D01*
X155018154Y-127533400D01*
X155037692Y-127552939D01*
X155057231Y-127533400D01*
X155037692Y-127513862D01*
X155018154Y-127533400D01*
X154961239Y-127533400D01*
X154979077Y-127513862D01*
X154972464Y-127495885D01*
X154920461Y-127474785D01*
X154893497Y-127479193D01*
X154884928Y-127488578D01*
X154861846Y-127513862D01*
X154242330Y-127513862D01*
X154250329Y-127488578D01*
X154209645Y-127457802D01*
X154175800Y-127448552D01*
X154127191Y-127453952D01*
X154122339Y-127482666D01*
X153935578Y-127482666D01*
X153910436Y-127435708D01*
X154412461Y-127435708D01*
X154420460Y-127446380D01*
X154473383Y-127474785D01*
X154482107Y-127473666D01*
X154510154Y-127435708D01*
X154502698Y-127417033D01*
X154449232Y-127396631D01*
X154421320Y-127402254D01*
X154412461Y-127435708D01*
X153910436Y-127435708D01*
X153820089Y-127266965D01*
X153572993Y-126965057D01*
X153565706Y-126957778D01*
X153499987Y-126904470D01*
X154879843Y-126904470D01*
X154880327Y-126965073D01*
X154889733Y-126978368D01*
X154949286Y-127002479D01*
X155028008Y-126951348D01*
X155081903Y-126921343D01*
X155187107Y-126916826D01*
X155196977Y-126918621D01*
X155270642Y-126917819D01*
X155291692Y-126875023D01*
X155286338Y-126842624D01*
X155236754Y-126781874D01*
X155161740Y-126760995D01*
X155094758Y-126793245D01*
X155094150Y-126793538D01*
X155057905Y-126823625D01*
X154995212Y-126834117D01*
X154986278Y-126831560D01*
X154924566Y-126849244D01*
X154879843Y-126904470D01*
X153499987Y-126904470D01*
X153361766Y-126792353D01*
X154413138Y-126792353D01*
X154453737Y-126825452D01*
X154503003Y-126842826D01*
X154541813Y-126840798D01*
X154549231Y-126793245D01*
X154540321Y-126746125D01*
X154495572Y-126713242D01*
X154435430Y-126747728D01*
X154413138Y-126792353D01*
X153361766Y-126792353D01*
X153303269Y-126744903D01*
X153021627Y-126601871D01*
X152729955Y-126527831D01*
X152437428Y-126521932D01*
X152153221Y-126583324D01*
X151886508Y-126711154D01*
X151646464Y-126904571D01*
X151442265Y-127162725D01*
X151314250Y-127421802D01*
X151221916Y-127740487D01*
X151177526Y-128081918D01*
X149557883Y-128081918D01*
X149586620Y-128006393D01*
X149648861Y-127927774D01*
X149755644Y-127828152D01*
X149910807Y-127684587D01*
X150145380Y-127454809D01*
X150399927Y-127194099D01*
X150658841Y-126919103D01*
X150906512Y-126646469D01*
X151127332Y-126392847D01*
X151181005Y-126327256D01*
X154048143Y-126327256D01*
X154080308Y-126341554D01*
X154100995Y-126338734D01*
X154106359Y-126315503D01*
X154100631Y-126310826D01*
X154054256Y-126315503D01*
X154048143Y-126327256D01*
X151181005Y-126327256D01*
X151305692Y-126174883D01*
X151321677Y-126154694D01*
X151405352Y-126058874D01*
X151468024Y-126003200D01*
X151497167Y-125999169D01*
X151551637Y-126072607D01*
X151647769Y-126106494D01*
X151674719Y-126086769D01*
X151900349Y-126086769D01*
X151905026Y-126133144D01*
X151916779Y-126139257D01*
X151931077Y-126107092D01*
X151928257Y-126086405D01*
X151905026Y-126081041D01*
X151900349Y-126086769D01*
X151674719Y-126086769D01*
X151685256Y-126079057D01*
X151695277Y-126010935D01*
X151677484Y-125934062D01*
X151633849Y-125880466D01*
X151622590Y-125871709D01*
X151615149Y-125841194D01*
X151634970Y-125787002D01*
X151687352Y-125699722D01*
X151727922Y-125641376D01*
X154041231Y-125641376D01*
X154041298Y-125642737D01*
X154071052Y-125648903D01*
X154138621Y-125615235D01*
X154208094Y-125583533D01*
X154285434Y-125574882D01*
X154334826Y-125594909D01*
X154332832Y-125640557D01*
X154317171Y-125656312D01*
X154255058Y-125662695D01*
X154227037Y-125658882D01*
X154163904Y-125690226D01*
X154152919Y-125711549D01*
X154181967Y-125731822D01*
X154278278Y-125737638D01*
X154310866Y-125737507D01*
X154397320Y-125735518D01*
X154432000Y-125731894D01*
X154429722Y-125723836D01*
X154409405Y-125663283D01*
X154374875Y-125564240D01*
X154361998Y-125524148D01*
X154338156Y-125412040D01*
X154338749Y-125334635D01*
X154346699Y-125308325D01*
X154347827Y-125288723D01*
X154315778Y-125335323D01*
X154264724Y-125378837D01*
X154171501Y-125403708D01*
X154144939Y-125404423D01*
X154091188Y-125423667D01*
X154091620Y-125481823D01*
X154096856Y-125531280D01*
X154076639Y-125581821D01*
X154069468Y-125587035D01*
X154041231Y-125641376D01*
X151727922Y-125641376D01*
X151777592Y-125569944D01*
X151910991Y-125388258D01*
X152053766Y-125191091D01*
X152126461Y-125191091D01*
X152126842Y-125196554D01*
X152149462Y-125205159D01*
X152188808Y-125163209D01*
X152198316Y-125141371D01*
X152171576Y-125145976D01*
X152154217Y-125158039D01*
X152126461Y-125191091D01*
X152053766Y-125191091D01*
X152060730Y-125181474D01*
X152218844Y-124954323D01*
X152282769Y-124954323D01*
X152302308Y-124973862D01*
X152321846Y-124954323D01*
X152302308Y-124934785D01*
X152282769Y-124954323D01*
X152218844Y-124954323D01*
X152227846Y-124941391D01*
X152298978Y-124835562D01*
X153720772Y-124835562D01*
X153726173Y-124869819D01*
X153745179Y-124896358D01*
X153761006Y-124954323D01*
X153767692Y-124978815D01*
X153768330Y-124985996D01*
X153808172Y-125048899D01*
X153890927Y-125107769D01*
X153928494Y-125125895D01*
X153968663Y-125141371D01*
X154025847Y-125163403D01*
X154067391Y-125161017D01*
X154047651Y-125118367D01*
X154027967Y-125078643D01*
X154025199Y-124991367D01*
X154030934Y-124960378D01*
X154010279Y-124862908D01*
X153933260Y-124806075D01*
X153813930Y-124802445D01*
X153786675Y-124808415D01*
X153720772Y-124835562D01*
X152298978Y-124835562D01*
X152387891Y-124703280D01*
X152465125Y-124583092D01*
X153396461Y-124583092D01*
X153404482Y-124594787D01*
X153437845Y-124622169D01*
X153441744Y-124621153D01*
X153455077Y-124583092D01*
X153453487Y-124572382D01*
X153413694Y-124544016D01*
X153399560Y-124547084D01*
X153396461Y-124583092D01*
X152465125Y-124583092D01*
X152520436Y-124497019D01*
X152539505Y-124466329D01*
X152639130Y-124306866D01*
X152722399Y-124174996D01*
X152781077Y-124083688D01*
X152806927Y-124045909D01*
X152819337Y-124043929D01*
X152888298Y-124066820D01*
X153003025Y-124121257D01*
X153149881Y-124199551D01*
X153315225Y-124294018D01*
X153485420Y-124396970D01*
X153646826Y-124500721D01*
X153765012Y-124583092D01*
X153785805Y-124597584D01*
X153951713Y-124726906D01*
X154255502Y-124997438D01*
X154414486Y-125161017D01*
X154547898Y-125298286D01*
X154814372Y-125612940D01*
G37*
X154814372Y-125612940D02*
X154900560Y-125731894D01*
X155040394Y-125924889D01*
X155146854Y-126107092D01*
X155211435Y-126217622D01*
X155250592Y-126301021D01*
X155256740Y-126315503D01*
X155325540Y-126477566D01*
X155405082Y-126680983D01*
X155474982Y-126875023D01*
X155477470Y-126881930D01*
X155484231Y-126901740D01*
X155539462Y-127068345D01*
X155577320Y-127201499D01*
X155601149Y-127323523D01*
X155612218Y-127435708D01*
X155614292Y-127456736D01*
X155616960Y-127533400D01*
X155620094Y-127623461D01*
X155621897Y-127846016D01*
X155622175Y-127925951D01*
X155621148Y-128092118D01*
X155618946Y-128136548D01*
X155614077Y-128234845D01*
X155597304Y-128355836D01*
X155596402Y-128362343D01*
X155563566Y-128482823D01*
X155511009Y-128604496D01*
X155434172Y-128735573D01*
X155372081Y-128822939D01*
X155328498Y-128884265D01*
X155289137Y-128933657D01*
X155189426Y-129058783D01*
X155040262Y-129234509D01*
X155012397Y-129267337D01*
X154792854Y-129518140D01*
X154526237Y-129819400D01*
X154488074Y-129862710D01*
X154307896Y-130077860D01*
X154276953Y-130114809D01*
X154207300Y-130210169D01*
X154120917Y-130328434D01*
X154112467Y-130340003D01*
X153982720Y-130557909D01*
X153953934Y-130619904D01*
X153875819Y-130788144D01*
X153779868Y-131050323D01*
X153773391Y-131069862D01*
X153773169Y-131070534D01*
X153741726Y-131167554D01*
X153723814Y-131222826D01*
X153717238Y-131245708D01*
X153687798Y-131348160D01*
X153662694Y-131464053D01*
X153646073Y-131588021D01*
X153642650Y-131636477D01*
X153636576Y-131722480D01*
X153635510Y-131737583D01*
X153629833Y-131895324D01*
X153628577Y-131930255D01*
X153622846Y-132183554D01*
X153622742Y-132187955D01*
X153622547Y-132196216D01*
X153618086Y-132385534D01*
X153611641Y-132598108D01*
X153604715Y-132775319D01*
X153597875Y-132902906D01*
X153591689Y-132966609D01*
X153589180Y-132973308D01*
X153538952Y-133027360D01*
X153437683Y-133105987D01*
X153300720Y-133199492D01*
X153143408Y-133298177D01*
X152981095Y-133392344D01*
X152829125Y-133472294D01*
X152702846Y-133528329D01*
X152595384Y-133568850D01*
X152595384Y-133097031D01*
X152594798Y-133007300D01*
X152582645Y-132745565D01*
X152551583Y-132550883D01*
X152497414Y-132415562D01*
X152415939Y-132331909D01*
X152302959Y-132292233D01*
X152154276Y-132288842D01*
X152134017Y-132290422D01*
X152033554Y-132308538D01*
X151971231Y-132355708D01*
X151914806Y-132454196D01*
X151903086Y-132479812D01*
X151875995Y-132559694D01*
X151855516Y-132663347D01*
X151839984Y-132804366D01*
X151827738Y-132996348D01*
X151817113Y-133252887D01*
X151794308Y-133898167D01*
X151657538Y-133933913D01*
X151584205Y-133952274D01*
X151439540Y-133986517D01*
X151286308Y-134021115D01*
X151183303Y-134041194D01*
X151020693Y-134065079D01*
X150889516Y-134075678D01*
X150727187Y-134078785D01*
X150713670Y-133539659D01*
X150707280Y-133338601D01*
X150697030Y-133163055D01*
X150682130Y-133039948D01*
X150660803Y-132955396D01*
X150631275Y-132895511D01*
X150572326Y-132826886D01*
X150449678Y-132761860D01*
X150314485Y-132760848D01*
X150184678Y-132822262D01*
X150078188Y-132944512D01*
X150076856Y-132946803D01*
X150043213Y-133015644D01*
X150020653Y-133095584D01*
X150007026Y-133203374D01*
X150000182Y-133355771D01*
X149997970Y-133569528D01*
X149996769Y-134059246D01*
X149840461Y-134069213D01*
X149788532Y-134068878D01*
X149651060Y-134055277D01*
X149477539Y-134028127D01*
X149293384Y-133991059D01*
X148902615Y-133902939D01*
X148901746Y-133258169D01*
X148900984Y-133082340D01*
X148897432Y-132877553D01*
X148889913Y-132728681D01*
X148877221Y-132622439D01*
X148858149Y-132545547D01*
X148831490Y-132484721D01*
X148805393Y-132450098D01*
X151384000Y-132450098D01*
X151384001Y-132450537D01*
X151406500Y-132476536D01*
X151470635Y-132441315D01*
X151572406Y-132347062D01*
X151610725Y-132305335D01*
X151664901Y-132233917D01*
X151676713Y-132196216D01*
X151672324Y-132194613D01*
X151626303Y-132216612D01*
X151552795Y-132271952D01*
X151473464Y-132341841D01*
X151409977Y-132407487D01*
X151384000Y-132450098D01*
X148805393Y-132450098D01*
X148760703Y-132390809D01*
X148634451Y-132309554D01*
X148492291Y-132284135D01*
X148388757Y-132308950D01*
X148354704Y-132317112D01*
X148242171Y-132411048D01*
X148227166Y-132432393D01*
X148197361Y-132489574D01*
X148176674Y-132564403D01*
X148162829Y-132672008D01*
X148153547Y-132827514D01*
X148146550Y-133046048D01*
X148138487Y-133267496D01*
X148125999Y-133438432D01*
X148109285Y-133538305D01*
X148087935Y-133570779D01*
X148086706Y-133570708D01*
X148033375Y-133550336D01*
X147927902Y-133498891D01*
X147784985Y-133423843D01*
X147619324Y-133332661D01*
X147524294Y-133278583D01*
X147360871Y-133179792D01*
X147250893Y-133101599D01*
X147182595Y-133035054D01*
X147144210Y-132971205D01*
X147143519Y-132969526D01*
X147120771Y-132875539D01*
X147105075Y-132720141D01*
X147096065Y-132497827D01*
X147094157Y-132288573D01*
X147719724Y-132288573D01*
X147728548Y-132307857D01*
X147782049Y-132349033D01*
X147840211Y-132334163D01*
X147859895Y-132308950D01*
X147855962Y-132261074D01*
X147785667Y-132242169D01*
X147738986Y-132251702D01*
X147719724Y-132288573D01*
X147094157Y-132288573D01*
X147093377Y-132203092D01*
X148648615Y-132203092D01*
X148649063Y-132211936D01*
X148665848Y-132242169D01*
X148672116Y-132240371D01*
X148707231Y-132203092D01*
X148713337Y-132187955D01*
X148689998Y-132164016D01*
X148678656Y-132165517D01*
X148648615Y-132203092D01*
X147093377Y-132203092D01*
X147091884Y-132033092D01*
X151465339Y-132033092D01*
X151480085Y-132083262D01*
X151500353Y-132102941D01*
X151571921Y-132123696D01*
X151597692Y-132122279D01*
X151611604Y-132107842D01*
X151562699Y-132065484D01*
X151550295Y-132058188D01*
X151805260Y-132058188D01*
X151847347Y-132107842D01*
X151869611Y-132134109D01*
X151900435Y-132152778D01*
X151938436Y-132155540D01*
X151990309Y-132123048D01*
X152077615Y-132046190D01*
X152163988Y-131959120D01*
X152197308Y-131895324D01*
X152163197Y-131861393D01*
X152061154Y-131851400D01*
X151969994Y-131861464D01*
X151865191Y-131907490D01*
X151830806Y-131949092D01*
X151807033Y-131977856D01*
X151805260Y-132058188D01*
X151550295Y-132058188D01*
X151501785Y-132029655D01*
X151465339Y-132033092D01*
X147091884Y-132033092D01*
X147091306Y-131967287D01*
X147090472Y-131949092D01*
X148609538Y-131949092D01*
X148629077Y-131968631D01*
X148648615Y-131949092D01*
X148629077Y-131929554D01*
X148609538Y-131949092D01*
X147090472Y-131949092D01*
X147075287Y-131617853D01*
X147070447Y-131576884D01*
X147833337Y-131576884D01*
X147842512Y-131631968D01*
X147906154Y-131656016D01*
X147951579Y-131663343D01*
X147984308Y-131695092D01*
X147985443Y-131704433D01*
X148023384Y-131734169D01*
X148040640Y-131733751D01*
X148058631Y-131722480D01*
X148051841Y-131679692D01*
X148037313Y-131636477D01*
X152517231Y-131636477D01*
X152536769Y-131656016D01*
X152556308Y-131636477D01*
X152536769Y-131616939D01*
X152517231Y-131636477D01*
X148037313Y-131636477D01*
X148019759Y-131584258D01*
X147994412Y-131521313D01*
X147957575Y-131485230D01*
X147902528Y-131501648D01*
X147879230Y-131516355D01*
X147833337Y-131576884D01*
X147070447Y-131576884D01*
X147039848Y-131317854D01*
X147023931Y-131245708D01*
X148023384Y-131245708D01*
X148042923Y-131265246D01*
X148062461Y-131245708D01*
X153025231Y-131245708D01*
X153044769Y-131265246D01*
X153064308Y-131245708D01*
X153044769Y-131226169D01*
X153025231Y-131245708D01*
X148062461Y-131245708D01*
X148042923Y-131226169D01*
X148023384Y-131245708D01*
X147023931Y-131245708D01*
X147015818Y-131208937D01*
X151501231Y-131208937D01*
X151502247Y-131212837D01*
X151540308Y-131226169D01*
X151551018Y-131224579D01*
X151579384Y-131184786D01*
X151576316Y-131170652D01*
X151540308Y-131167554D01*
X151528613Y-131175574D01*
X151501231Y-131208937D01*
X147015818Y-131208937D01*
X146997306Y-131125028D01*
X152095087Y-131125028D01*
X152124256Y-131169329D01*
X152187157Y-131180474D01*
X152227544Y-131167554D01*
X152908000Y-131167554D01*
X152927538Y-131187092D01*
X152947077Y-131167554D01*
X152927538Y-131148016D01*
X152908000Y-131167554D01*
X152227544Y-131167554D01*
X152253977Y-131159098D01*
X152294902Y-131105840D01*
X152301196Y-131074616D01*
X152289887Y-131049538D01*
X153072656Y-131049538D01*
X153075186Y-131074616D01*
X153077333Y-131095913D01*
X153089087Y-131102026D01*
X153103384Y-131069862D01*
X153100564Y-131049174D01*
X153077333Y-131043810D01*
X153072656Y-131049538D01*
X152289887Y-131049538D01*
X152284960Y-131038613D01*
X152211662Y-131038253D01*
X152139174Y-131061734D01*
X152096283Y-131110085D01*
X152095087Y-131125028D01*
X146997306Y-131125028D01*
X146980722Y-131049862D01*
X146893642Y-130796446D01*
X146824190Y-130647258D01*
X147856952Y-130647258D01*
X147935962Y-130726269D01*
X147948744Y-130737762D01*
X148048940Y-130795492D01*
X148171142Y-130833837D01*
X148265937Y-130847243D01*
X148311023Y-130837933D01*
X148315107Y-130800051D01*
X148309926Y-130770788D01*
X148299913Y-130689762D01*
X148272040Y-130640020D01*
X148202208Y-130579758D01*
X148147283Y-130549792D01*
X149829416Y-130549792D01*
X149864841Y-130690390D01*
X149934518Y-130800051D01*
X149946034Y-130818177D01*
X150074287Y-130946830D01*
X150195950Y-131027534D01*
X150365766Y-131070613D01*
X150532559Y-131044453D01*
X150681467Y-130952135D01*
X150797631Y-130796745D01*
X150843022Y-130686957D01*
X150869864Y-130522835D01*
X151717132Y-130522835D01*
X151723027Y-130585220D01*
X151726916Y-130593564D01*
X151772503Y-130631929D01*
X151826714Y-130637909D01*
X151852923Y-130605723D01*
X151852425Y-130599571D01*
X151828074Y-130558574D01*
X152712615Y-130558574D01*
X152731974Y-130605723D01*
X152737517Y-130619224D01*
X152810483Y-130673880D01*
X152898231Y-130688175D01*
X152968822Y-130664806D01*
X152976592Y-130619904D01*
X152913651Y-130547437D01*
X152891099Y-130530887D01*
X152813445Y-130506548D01*
X152743199Y-130516373D01*
X152712615Y-130558574D01*
X151828074Y-130558574D01*
X151821872Y-130548133D01*
X151768098Y-130508721D01*
X151725020Y-130507406D01*
X151722010Y-130513293D01*
X151717132Y-130522835D01*
X150869864Y-130522835D01*
X150871425Y-130513293D01*
X150863887Y-130436950D01*
X151931318Y-130436950D01*
X151958856Y-130444631D01*
X151993746Y-130431110D01*
X152053292Y-130376246D01*
X152079385Y-130342038D01*
X152081913Y-130328434D01*
X152028769Y-130365189D01*
X151975046Y-130404390D01*
X151934333Y-130433573D01*
X151931318Y-130436950D01*
X150863887Y-130436950D01*
X150851713Y-130313643D01*
X150817010Y-130189845D01*
X153893272Y-130189845D01*
X153897949Y-130236221D01*
X153909702Y-130242334D01*
X153924000Y-130210169D01*
X153921180Y-130189482D01*
X153897949Y-130184118D01*
X153893272Y-130189845D01*
X150817010Y-130189845D01*
X150789198Y-130090632D01*
X151423077Y-130090632D01*
X151427111Y-130112275D01*
X151466607Y-130151882D01*
X151515319Y-130143979D01*
X151525928Y-130131812D01*
X151535585Y-130077860D01*
X151481692Y-130053862D01*
X151454762Y-130057999D01*
X151423077Y-130090632D01*
X150789198Y-130090632D01*
X150783548Y-130070475D01*
X150681280Y-129793102D01*
X150631146Y-129682631D01*
X151227692Y-129682631D01*
X151247231Y-129702169D01*
X151266769Y-129682631D01*
X151247231Y-129663092D01*
X151227692Y-129682631D01*
X150631146Y-129682631D01*
X150579364Y-129568527D01*
X150483639Y-129416291D01*
X150392381Y-129333691D01*
X150303866Y-129318021D01*
X150298568Y-129319129D01*
X150261056Y-129334852D01*
X150224702Y-129370949D01*
X150183880Y-129438015D01*
X150132963Y-129546646D01*
X150066324Y-129707437D01*
X149978335Y-129930983D01*
X149890699Y-130175454D01*
X149838466Y-130382705D01*
X149834053Y-130464169D01*
X149829416Y-130549792D01*
X148147283Y-130549792D01*
X148134301Y-130542709D01*
X148072242Y-130542394D01*
X147982223Y-130582478D01*
X147856952Y-130647258D01*
X146824190Y-130647258D01*
X146774340Y-130540176D01*
X146731523Y-130464169D01*
X147984308Y-130464169D01*
X148003846Y-130483708D01*
X148023384Y-130464169D01*
X148003846Y-130444631D01*
X147984308Y-130464169D01*
X146731523Y-130464169D01*
X146618550Y-130263623D01*
X146498253Y-130063076D01*
X146796474Y-129921451D01*
X147094696Y-129779827D01*
X147298175Y-129896246D01*
X147309700Y-129902786D01*
X147591316Y-130026820D01*
X147868732Y-130076652D01*
X148153572Y-130054430D01*
X148355341Y-130001882D01*
X148665653Y-129860721D01*
X148932646Y-129656506D01*
X149154445Y-129391682D01*
X149329178Y-129068693D01*
X149454973Y-128689984D01*
X149529956Y-128257998D01*
X149534401Y-128217493D01*
X149553580Y-128093227D01*
X149557883Y-128081918D01*
X151177526Y-128081918D01*
X151183852Y-128424038D01*
X151243660Y-128744785D01*
X151286753Y-128874402D01*
X151421192Y-129161536D01*
X151597308Y-129429196D01*
X151803043Y-129662780D01*
X151827015Y-129682631D01*
X152026337Y-129847689D01*
X152255128Y-129969320D01*
X152572469Y-130054293D01*
X152878536Y-130065308D01*
X153166733Y-130000281D01*
X153436404Y-129859360D01*
X153482602Y-129819400D01*
X154275692Y-129819400D01*
X154282305Y-129837377D01*
X154334308Y-129858477D01*
X154361272Y-129854068D01*
X154392923Y-129819400D01*
X154386310Y-129801424D01*
X154334308Y-129780323D01*
X154307343Y-129784732D01*
X154275692Y-129819400D01*
X153482602Y-129819400D01*
X153686895Y-129642694D01*
X153722034Y-129604797D01*
X153894082Y-129384496D01*
X153951897Y-129272195D01*
X154413919Y-129272195D01*
X154419238Y-129308809D01*
X154450016Y-129274787D01*
X154450190Y-129274510D01*
X154503391Y-129251343D01*
X154594355Y-129253850D01*
X154655175Y-129257740D01*
X154698018Y-129234509D01*
X154678193Y-129188943D01*
X154595549Y-129136057D01*
X154544053Y-129097719D01*
X154507516Y-128999288D01*
X154501990Y-128969902D01*
X154483080Y-128997204D01*
X154477257Y-129016017D01*
X154452356Y-129096477D01*
X154442361Y-129135554D01*
X154434016Y-129168187D01*
X154413919Y-129272195D01*
X153951897Y-129272195D01*
X154014267Y-129151046D01*
X154019013Y-129135554D01*
X154314769Y-129135554D01*
X154334308Y-129155092D01*
X154353846Y-129135554D01*
X154334308Y-129116016D01*
X154314769Y-129135554D01*
X154019013Y-129135554D01*
X154048232Y-129040168D01*
X154314769Y-129040168D01*
X154315888Y-129048892D01*
X154353846Y-129076939D01*
X154372521Y-129069483D01*
X154392923Y-129016017D01*
X154387300Y-128988105D01*
X154353846Y-128979246D01*
X154343174Y-128987245D01*
X154314769Y-129040168D01*
X154048232Y-129040168D01*
X154077259Y-128945410D01*
X154751527Y-128945410D01*
X154783692Y-128959708D01*
X154804379Y-128956888D01*
X154809743Y-128933657D01*
X154804016Y-128928980D01*
X154757641Y-128933657D01*
X154751527Y-128945410D01*
X154077259Y-128945410D01*
X154099435Y-128873015D01*
X154109708Y-128822939D01*
X154510154Y-128822939D01*
X154529692Y-128842477D01*
X154549231Y-128822939D01*
X154529692Y-128803400D01*
X154510154Y-128822939D01*
X154109708Y-128822939D01*
X154124840Y-128749181D01*
X154156274Y-128355836D01*
X154136416Y-128174165D01*
X154480388Y-128174165D01*
X154481543Y-128260741D01*
X154488449Y-128295400D01*
X154511284Y-128264001D01*
X154527293Y-128187994D01*
X154531456Y-128101847D01*
X154524073Y-128063483D01*
X155223119Y-128063483D01*
X155233077Y-128100016D01*
X155234348Y-128101847D01*
X155241105Y-128111583D01*
X155276766Y-128139092D01*
X155282111Y-128136548D01*
X155272154Y-128100016D01*
X155264125Y-128088448D01*
X155228464Y-128060939D01*
X155223119Y-128063483D01*
X154524073Y-128063483D01*
X154519567Y-128040069D01*
X154510754Y-128027995D01*
X154491445Y-128045143D01*
X154481445Y-128139239D01*
X154480388Y-128174165D01*
X154136416Y-128174165D01*
X154114268Y-127971552D01*
X154001360Y-127605529D01*
X153935578Y-127482666D01*
X154122339Y-127482666D01*
X154142554Y-127553274D01*
X154161800Y-127593889D01*
X154186896Y-127609612D01*
X154225007Y-127557124D01*
X154232618Y-127544558D01*
X154242330Y-127513862D01*
X154861846Y-127513862D01*
X154868459Y-127531838D01*
X154920461Y-127552939D01*
X154947426Y-127548530D01*
X154961239Y-127533400D01*
X155018154Y-127533400D01*
X155037692Y-127552939D01*
X155057231Y-127533400D01*
X155037692Y-127513862D01*
X155018154Y-127533400D01*
X154961239Y-127533400D01*
X154979077Y-127513862D01*
X154972464Y-127495885D01*
X154920461Y-127474785D01*
X154893497Y-127479193D01*
X154884928Y-127488578D01*
X154861846Y-127513862D01*
X154242330Y-127513862D01*
X154250329Y-127488578D01*
X154209645Y-127457802D01*
X154175800Y-127448552D01*
X154127191Y-127453952D01*
X154122339Y-127482666D01*
X153935578Y-127482666D01*
X153910436Y-127435708D01*
X154412461Y-127435708D01*
X154420460Y-127446380D01*
X154473383Y-127474785D01*
X154482107Y-127473666D01*
X154510154Y-127435708D01*
X154502698Y-127417033D01*
X154449232Y-127396631D01*
X154421320Y-127402254D01*
X154412461Y-127435708D01*
X153910436Y-127435708D01*
X153820089Y-127266965D01*
X153572993Y-126965057D01*
X153565706Y-126957778D01*
X153499987Y-126904470D01*
X154879843Y-126904470D01*
X154880327Y-126965073D01*
X154889733Y-126978368D01*
X154949286Y-127002479D01*
X155028008Y-126951348D01*
X155081903Y-126921343D01*
X155187107Y-126916826D01*
X155196977Y-126918621D01*
X155270642Y-126917819D01*
X155291692Y-126875023D01*
X155286338Y-126842624D01*
X155236754Y-126781874D01*
X155161740Y-126760995D01*
X155094758Y-126793245D01*
X155094150Y-126793538D01*
X155057905Y-126823625D01*
X154995212Y-126834117D01*
X154986278Y-126831560D01*
X154924566Y-126849244D01*
X154879843Y-126904470D01*
X153499987Y-126904470D01*
X153361766Y-126792353D01*
X154413138Y-126792353D01*
X154453737Y-126825452D01*
X154503003Y-126842826D01*
X154541813Y-126840798D01*
X154549231Y-126793245D01*
X154540321Y-126746125D01*
X154495572Y-126713242D01*
X154435430Y-126747728D01*
X154413138Y-126792353D01*
X153361766Y-126792353D01*
X153303269Y-126744903D01*
X153021627Y-126601871D01*
X152729955Y-126527831D01*
X152437428Y-126521932D01*
X152153221Y-126583324D01*
X151886508Y-126711154D01*
X151646464Y-126904571D01*
X151442265Y-127162725D01*
X151314250Y-127421802D01*
X151221916Y-127740487D01*
X151177526Y-128081918D01*
X149557883Y-128081918D01*
X149586620Y-128006393D01*
X149648861Y-127927774D01*
X149755644Y-127828152D01*
X149910807Y-127684587D01*
X150145380Y-127454809D01*
X150399927Y-127194099D01*
X150658841Y-126919103D01*
X150906512Y-126646469D01*
X151127332Y-126392847D01*
X151181005Y-126327256D01*
X154048143Y-126327256D01*
X154080308Y-126341554D01*
X154100995Y-126338734D01*
X154106359Y-126315503D01*
X154100631Y-126310826D01*
X154054256Y-126315503D01*
X154048143Y-126327256D01*
X151181005Y-126327256D01*
X151305692Y-126174883D01*
X151321677Y-126154694D01*
X151405352Y-126058874D01*
X151468024Y-126003200D01*
X151497167Y-125999169D01*
X151551637Y-126072607D01*
X151647769Y-126106494D01*
X151674719Y-126086769D01*
X151900349Y-126086769D01*
X151905026Y-126133144D01*
X151916779Y-126139257D01*
X151931077Y-126107092D01*
X151928257Y-126086405D01*
X151905026Y-126081041D01*
X151900349Y-126086769D01*
X151674719Y-126086769D01*
X151685256Y-126079057D01*
X151695277Y-126010935D01*
X151677484Y-125934062D01*
X151633849Y-125880466D01*
X151622590Y-125871709D01*
X151615149Y-125841194D01*
X151634970Y-125787002D01*
X151687352Y-125699722D01*
X151727922Y-125641376D01*
X154041231Y-125641376D01*
X154041298Y-125642737D01*
X154071052Y-125648903D01*
X154138621Y-125615235D01*
X154208094Y-125583533D01*
X154285434Y-125574882D01*
X154334826Y-125594909D01*
X154332832Y-125640557D01*
X154317171Y-125656312D01*
X154255058Y-125662695D01*
X154227037Y-125658882D01*
X154163904Y-125690226D01*
X154152919Y-125711549D01*
X154181967Y-125731822D01*
X154278278Y-125737638D01*
X154310866Y-125737507D01*
X154397320Y-125735518D01*
X154432000Y-125731894D01*
X154429722Y-125723836D01*
X154409405Y-125663283D01*
X154374875Y-125564240D01*
X154361998Y-125524148D01*
X154338156Y-125412040D01*
X154338749Y-125334635D01*
X154346699Y-125308325D01*
X154347827Y-125288723D01*
X154315778Y-125335323D01*
X154264724Y-125378837D01*
X154171501Y-125403708D01*
X154144939Y-125404423D01*
X154091188Y-125423667D01*
X154091620Y-125481823D01*
X154096856Y-125531280D01*
X154076639Y-125581821D01*
X154069468Y-125587035D01*
X154041231Y-125641376D01*
X151727922Y-125641376D01*
X151777592Y-125569944D01*
X151910991Y-125388258D01*
X152053766Y-125191091D01*
X152126461Y-125191091D01*
X152126842Y-125196554D01*
X152149462Y-125205159D01*
X152188808Y-125163209D01*
X152198316Y-125141371D01*
X152171576Y-125145976D01*
X152154217Y-125158039D01*
X152126461Y-125191091D01*
X152053766Y-125191091D01*
X152060730Y-125181474D01*
X152218844Y-124954323D01*
X152282769Y-124954323D01*
X152302308Y-124973862D01*
X152321846Y-124954323D01*
X152302308Y-124934785D01*
X152282769Y-124954323D01*
X152218844Y-124954323D01*
X152227846Y-124941391D01*
X152298978Y-124835562D01*
X153720772Y-124835562D01*
X153726173Y-124869819D01*
X153745179Y-124896358D01*
X153761006Y-124954323D01*
X153767692Y-124978815D01*
X153768330Y-124985996D01*
X153808172Y-125048899D01*
X153890927Y-125107769D01*
X153928494Y-125125895D01*
X153968663Y-125141371D01*
X154025847Y-125163403D01*
X154067391Y-125161017D01*
X154047651Y-125118367D01*
X154027967Y-125078643D01*
X154025199Y-124991367D01*
X154030934Y-124960378D01*
X154010279Y-124862908D01*
X153933260Y-124806075D01*
X153813930Y-124802445D01*
X153786675Y-124808415D01*
X153720772Y-124835562D01*
X152298978Y-124835562D01*
X152387891Y-124703280D01*
X152465125Y-124583092D01*
X153396461Y-124583092D01*
X153404482Y-124594787D01*
X153437845Y-124622169D01*
X153441744Y-124621153D01*
X153455077Y-124583092D01*
X153453487Y-124572382D01*
X153413694Y-124544016D01*
X153399560Y-124547084D01*
X153396461Y-124583092D01*
X152465125Y-124583092D01*
X152520436Y-124497019D01*
X152539505Y-124466329D01*
X152639130Y-124306866D01*
X152722399Y-124174996D01*
X152781077Y-124083688D01*
X152806927Y-124045909D01*
X152819337Y-124043929D01*
X152888298Y-124066820D01*
X153003025Y-124121257D01*
X153149881Y-124199551D01*
X153315225Y-124294018D01*
X153485420Y-124396970D01*
X153646826Y-124500721D01*
X153765012Y-124583092D01*
X153785805Y-124597584D01*
X153951713Y-124726906D01*
X154255502Y-124997438D01*
X154414486Y-125161017D01*
X154547898Y-125298286D01*
X154814372Y-125612940D01*
%TD*%
M02*
